<?xml version="1.0" standalone="no"?>
<!DOCTYPE svg PUBLIC "-//W3C//DTD SVG 20010904//EN"
 "http://www.w3.org/TR/2001/REC-SVG-20010904/DTD/svg10.dtd">
<svg version="1.0" xmlns="http://www.w3.org/2000/svg"
 width="10480.000000pt" height="2352.000000pt" viewBox="0 0 10480.000000 2352.000000"
 preserveAspectRatio="xMidYMid meet">

<g transform="translate(0.000000,2352.000000) scale(0.100000,-0.100000)"
fill="#000000" stroke="none">
<path d="M14915 22550 c-71 -4 -157 -15 -190 -23 -157 -38 -345 -106 -474
-171 -182 -92 -388 -265 -534 -450 -103 -131 -183 -221 -210 -235 -20 -11 -34
-8 -98 17 -348 138 -582 175 -830 133 -285 -49 -409 -90 -602 -199 -227 -128
-389 -269 -520 -450 -127 -177 -188 -302 -230 -472 -37 -147 -62 -217 -102
-278 -44 -66 -87 -97 -255 -183 -219 -112 -385 -252 -535 -451 -154 -203 -199
-314 -257 -623 -22 -121 -23 -157 -15 -520 l2 -70 -60 0 c-33 1 -123 6 -200
13 -111 11 -926 13 -3955 10 l-3815 -4 -119 -22 c-229 -42 -368 -91 -529 -186
-263 -154 -408 -309 -560 -596 -66 -125 -107 -243 -150 -440 l-32 -145 -3
-4055 c-2 -2942 0 -4092 8 -4190 29 -343 92 -583 202 -766 139 -231 245 -344
458 -489 171 -117 357 -184 635 -229 198 -33 422 -36 2175 -36 1646 1 1745 0
1757 -16 32 -44 18 -98 -177 -684 -178 -534 -219 -639 -279 -711 l-29 -34
-183 -1 c-192 -1 -317 -19 -518 -74 -416 -116 -728 -503 -780 -970 -28 -249
96 -549 318 -771 128 -128 250 -205 411 -261 208 -73 352 -78 1905 -78 693 0
1268 0 1277 0 10 0 25 -12 35 -27 16 -25 18 -80 24 -677 6 -608 8 -657 27
-741 88 -386 319 -761 617 -1005 240 -197 556 -353 798 -395 139 -25 512 -37
959 -32 487 5 565 13 927 87 324 67 769 160 1051 221 129 27 395 83 590 124
195 41 472 100 615 131 143 31 400 84 570 119 171 35 355 74 410 88 211 54
460 99 575 104 103 5 135 2 305 -30 105 -19 208 -38 230 -42 22 -3 85 -17 140
-30 126 -30 396 -88 540 -115 61 -12 157 -32 215 -46 132 -32 300 -67 505
-105 88 -16 232 -47 320 -68 206 -51 327 -76 500 -105 77 -13 196 -37 265 -54
205 -50 389 -90 490 -107 52 -8 153 -29 224 -46 164 -38 400 -85 496 -98 136
-19 450 -31 836 -31 548 0 741 18 959 91 452 150 838 487 1054 917 100 199
128 303 143 530 16 240 24 5773 8 6042 -27 472 -34 511 -155 820 -179 459
-490 850 -887 1113 -138 92 -357 218 -458 264 -123 57 -351 130 -518 167 -86
19 -303 56 -482 81 -179 25 -404 57 -500 71 -96 14 -251 36 -345 49 -846 117
-1525 218 -1597 236 -68 17 -68 17 -68 364 0 170 -5 378 -10 460 -11 175 -2
256 38 330 29 54 117 145 367 380 337 318 598 709 780 1170 82 207 114 314
151 495 85 426 117 486 268 509 42 6 87 11 100 11 65 0 228 53 351 115 221
111 440 288 568 460 104 140 215 408 253 610 34 182 0 466 -81 675 -101 263
-219 420 -475 633 -145 121 -160 135 -160 150 0 11 40 47 170 153 139 112 229
198 293 281 103 135 187 306 235 480 25 92 26 111 26 313 0 195 -3 227 -27
342 -51 243 -128 412 -263 582 -144 182 -338 321 -579 416 -191 75 -211 98
-275 316 -78 270 -127 382 -234 538 -146 215 -388 418 -662 555 -236 119 -627
187 -849 148 -143 -25 -261 -63 -397 -129 l-126 -60 -44 30 c-24 16 -102 103
-178 198 -201 250 -385 402 -637 524 -279 136 -551 183 -928 160z m525 -738
c204 -60 272 -96 384 -201 122 -116 175 -202 272 -441 85 -210 106 -252 157
-307 50 -54 149 -126 195 -141 58 -20 145 24 382 190 225 158 319 202 469 219
100 12 279 3 360 -17 88 -23 288 -126 362 -187 86 -71 180 -190 223 -280 60
-128 73 -205 80 -457 3 -124 10 -241 16 -261 15 -53 64 -116 118 -150 66 -42
154 -67 300 -85 210 -25 359 -99 497 -245 76 -81 120 -164 160 -303 38 -135
31 -244 -29 -416 -76 -218 -272 -402 -501 -468 -60 -18 -111 -22 -346 -27
-251 -6 -278 -5 -293 11 -20 19 -60 98 -141 276 -62 137 -112 201 -188 240
-53 26 -77 22 -263 -48 -204 -77 -315 -104 -426 -104 -187 0 -328 54 -458 177
-145 136 -203 237 -239 413 -51 247 -103 350 -220 428 -91 60 -195 68 -300 21
-65 -28 -196 -167 -266 -279 -82 -134 -157 -224 -229 -277 -75 -56 -125 -78
-236 -105 -160 -40 -412 -21 -558 42 -73 32 -171 139 -270 296 -123 195 -205
284 -298 326 -40 18 -69 22 -154 22 -92 1 -109 -2 -141 -22 -108 -66 -177
-192 -215 -393 -14 -72 -34 -155 -45 -185 -30 -79 -113 -201 -187 -272 -114
-110 -331 -196 -492 -195 -99 0 -175 20 -415 110 l-199 74 -37 -16 c-49 -22
-149 -126 -194 -200 -19 -32 -51 -109 -70 -170 -19 -60 -45 -123 -58 -139
l-23 -29 -289 2 c-274 2 -292 3 -364 26 -102 33 -216 102 -303 183 -101 95
-153 169 -185 265 -24 75 -27 96 -27 237 -1 136 2 164 22 230 49 154 129 274
239 356 118 89 193 121 408 169 137 31 263 86 314 136 64 63 72 98 87 354 10
185 17 244 34 295 27 79 71 168 123 245 95 141 321 320 468 372 69 24 79 25
288 21 210 -4 218 -5 283 -32 98 -41 215 -111 376 -224 170 -120 220 -146 282
-146 86 0 216 99 288 217 18 30 56 117 83 193 86 234 140 325 275 455 132 127
241 190 392 228 117 30 111 30 372 26 240 -2 247 -3 350 -33z m-1234 -3232
c14 -6 74 -40 132 -76 221 -140 403 -201 661 -223 257 -23 539 53 841 226 71
40 136 73 145 73 35 0 78 -38 171 -148 104 -122 163 -176 306 -275 110 -76
327 -200 389 -223 79 -28 202 -52 323 -64 l119 -12 61 33 c55 30 69 33 148 34
47 0 89 -3 92 -6 12 -11 28 -129 22 -154 -4 -16 -16 -27 -32 -31 -33 -9 -124
11 -191 41 -31 14 -91 28 -150 35 -118 14 -290 46 -357 66 -65 19 -159 18
-227 -2 -81 -24 -339 -129 -427 -173 -212 -107 -374 -257 -525 -486 -82 -124
-157 -277 -171 -349 l-13 -61 -404 -6 -404 -7 -40 42 c-24 26 -67 97 -108 180
-73 149 -119 223 -206 330 -71 88 -219 220 -324 290 -173 113 -421 220 -573
245 -66 12 -78 10 -195 -18 -80 -19 -176 -34 -264 -41 -184 -14 -165 -9 -285
-68 -137 -67 -161 -72 -193 -38 -49 52 -38 108 33 168 65 57 136 59 254 8 26
-11 45 -16 42 -12 -2 4 75 7 172 7 160 0 184 2 250 24 72 23 347 177 447 249
76 55 207 184 311 309 110 131 115 134 170 113z m-3669 -715 c127 -40 235
-124 213 -165 -5 -10 -54 -58 -107 -107 -247 -222 -392 -408 -481 -618 -52
-122 -104 -357 -109 -495 -6 -138 22 -326 68 -464 39 -118 135 -303 207 -401
178 -243 546 -488 807 -539 44 -8 131 -20 192 -25 116 -11 165 -27 183 -61 6
-11 17 -68 25 -127 38 -287 120 -605 210 -819 92 -216 214 -450 313 -600 182
-274 261 -362 697 -784 97 -93 147 -150 164 -184 24 -49 24 -49 16 -285 -4
-130 -7 -357 -6 -506 2 -312 1 -314 -88 -360 -53 -26 -313 -94 -460 -120 -48
-8 -187 -38 -311 -65 -124 -28 -331 -73 -460 -100 -257 -54 -333 -70 -580
-124 -149 -32 -369 -79 -860 -181 -205 -43 -353 -87 -573 -171 -306 -117 -495
-222 -717 -399 -139 -111 -235 -173 -294 -190 -47 -14 -446 -16 -3562 -19
-1930 -2 -3529 -4 -3553 -5 -28 0 -56 7 -76 19 l-33 20 -7 873 c-3 479 -5
2107 -3 3617 l3 2745 33 120 c40 151 78 229 149 305 89 96 245 189 376 225 44
12 692 14 4299 14 l4247 1 78 -25z m2918 -715 c107 -29 174 -60 256 -121 181
-134 292 -333 306 -549 7 -104 -18 -214 -77 -335 -43 -90 -93 -152 -191 -240
-202 -180 -484 -231 -744 -134 -83 31 -173 94 -262 184 -89 91 -148 193 -179
315 -20 78 -15 288 9 360 50 151 94 226 193 325 176 175 297 229 504 221 63
-3 137 -13 185 -26z m3625 -2 c145 -34 240 -94 356 -223 73 -82 115 -137 142
-192 29 -56 45 -186 40 -316 -5 -126 -27 -195 -102 -320 -117 -195 -256 -302
-466 -357 -176 -46 -401 -6 -564 100 -96 63 -203 180 -254 277 -62 119 -72
166 -72 324 0 169 22 252 100 373 194 301 476 416 820 334z m1867 -17 c127
-49 349 -245 403 -355 89 -184 92 -468 6 -641 -62 -126 -226 -279 -381 -358
-73 -36 -191 -70 -220 -63 -14 4 -37 24 -51 45 l-25 39 -2 639 c-1 679 -3 657
47 712 19 21 27 23 83 18 34 -4 97 -20 140 -36z m-7500 9 c53 -32 56 -47 48
-214 -4 -83 -10 -371 -13 -641 -7 -459 -8 -492 -26 -522 -33 -54 -51 -58 -146
-27 -234 73 -351 160 -466 346 -110 180 -130 409 -54 620 38 104 84 169 188
270 92 89 146 125 240 164 75 31 182 33 229 4z m4017 -1064 c34 -22 57 -59
155 -254 46 -90 109 -198 142 -241 73 -98 215 -234 309 -296 228 -152 563
-265 784 -265 45 0 143 11 217 24 306 55 400 94 617 258 117 87 212 148 235
148 8 0 20 -6 27 -14 19 -24 24 -158 11 -300 -7 -72 -16 -180 -22 -241 -18
-200 -141 -608 -250 -831 -67 -136 -197 -339 -314 -489 -139 -179 -317 -345
-570 -533 -76 -57 -163 -109 -280 -167 -455 -226 -601 -277 -935 -324 -412
-58 -556 -65 -765 -37 -563 78 -655 102 -1000 268 -339 163 -411 206 -608 372
-263 219 -394 361 -556 601 -121 180 -161 250 -225 397 -113 259 -186 519
-205 723 -6 66 -21 210 -33 321 -24 232 -22 254 25 254 39 0 78 -24 242 -146
205 -153 346 -213 610 -260 184 -32 268 -33 410 -4 324 66 629 219 815 410 89
91 158 197 242 370 78 161 131 239 177 262 26 12 86 15 375 13 305 -1 347 -4
370 -19z m-1656 -4052 c42 -14 138 -47 212 -74 198 -71 308 -99 520 -134 90
-14 317 -37 425 -43 177 -8 575 27 801 72 112 23 165 39 452 140 66 23 130 39
177 42 68 5 75 4 97 -19 l25 -24 6 -379 c8 -397 4 -455 -34 -568 -28 -82 -101
-225 -166 -327 -249 -384 -783 -608 -1357 -570 -187 12 -248 21 -377 54 -199
51 -364 143 -539 301 -194 175 -332 370 -389 549 l-29 91 -4 441 c-2 362 0
444 11 458 20 23 80 20 169 -10z m3512 -1394 c102 -23 252 -44 415 -60 61 -6
178 -22 260 -35 83 -14 213 -34 290 -45 77 -10 199 -28 270 -39 72 -11 191
-27 265 -36 74 -8 207 -27 295 -41 88 -14 221 -34 295 -44 74 -10 180 -26 235
-34 55 -9 186 -26 290 -40 358 -46 620 -148 880 -343 236 -176 387 -346 532
-600 124 -216 176 -357 228 -623 l25 -125 0 -1092 c0 -612 -4 -1094 -9 -1097
-5 -3 -309 -8 -677 -12 -750 -7 -786 -9 -974 -74 -119 -42 -163 -49 -177 -27
-4 6 -8 248 -8 537 0 507 -1 526 -20 559 -11 19 -33 43 -48 55 -28 20 -38 21
-313 19 -193 -1 -289 -5 -298 -12 -35 -29 -38 -93 -35 -790 l3 -683 -34 -34
c-49 -49 -181 -113 -545 -267 -176 -75 -351 -150 -390 -167 -277 -125 -492
-205 -615 -229 -59 -12 -376 -36 -655 -51 -161 -8 -333 -22 -685 -56 -588 -57
-1053 -74 -1323 -50 -100 9 -274 21 -387 26 -113 5 -266 15 -340 24 -135 14
-517 45 -830 66 -515 35 -590 46 -778 116 -53 20 -236 96 -407 169 -170 73
-380 161 -465 195 -306 123 -456 217 -481 300 -9 28 -9 92 -1 247 5 114 9 406
9 648 -2 421 -3 442 -22 474 -11 19 -33 43 -48 55 -28 20 -38 21 -313 19 -194
-1 -289 -5 -298 -12 -32 -27 -36 -98 -36 -647 l0 -547 -54 6 c-33 3 -70 15
-95 31 -57 37 -125 62 -214 80 -65 14 -175 16 -726 16 l-651 0 -29 27 -30 28
-2 995 -3 995 27 156 c51 298 169 556 363 790 155 187 420 397 639 506 170 85
293 119 860 238 226 47 491 103 590 124 575 125 815 176 1030 221 132 27 385
82 563 121 l322 72 46 -18 c61 -23 123 -89 239 -255 151 -216 351 -415 573
-568 191 -132 560 -283 772 -316 618 -98 1248 15 1681 300 259 170 438 350
617 619 48 72 114 158 147 193 59 60 62 62 113 62 29 0 93 -9 142 -20z m-9293
-1385 c69 -8 72 -22 35 -138 -104 -318 -155 -536 -178 -760 -9 -84 -21 -160
-28 -170 -11 -17 -140 -18 -2969 -17 l-2957 0 -75 24 c-109 35 -208 97 -302
191 -98 98 -128 154 -173 330 -41 157 -54 396 -26 469 17 44 44 70 81 77 32 7
6537 0 6592 -6z m-527 -1797 c338 3 346 2 367 -58 9 -26 12 -203 12 -658 1
-623 -2 -696 -34 -722 -9 -7 -256 -11 -786 -11 -426 0 -787 0 -803 0 l-29 1 5
88 c5 75 14 109 66 248 34 89 79 215 100 280 50 154 155 479 182 569 26 86 73
181 108 219 52 55 66 57 297 49 116 -4 347 -7 515 -5z m2475 -1827 c54 -13
151 -45 215 -73 254 -110 411 -177 765 -328 204 -87 444 -190 535 -230 988
-429 999 -433 1446 -465 115 -8 265 -19 334 -25 69 -5 195 -12 280 -15 85 -3
187 -10 225 -15 39 -5 135 -14 215 -20 80 -5 190 -15 245 -20 55 -6 195 -17
310 -25 193 -13 379 -28 675 -55 63 -6 237 -17 385 -25 149 -8 279 -17 290
-20 11 -2 110 -12 220 -20 110 -8 254 -19 320 -25 66 -5 185 -14 265 -20 217
-14 641 -49 670 -55 14 -2 126 -9 250 -15 124 -6 261 -15 305 -20 44 -5 145
-14 225 -20 80 -5 188 -15 240 -20 52 -6 194 -17 315 -25 121 -9 263 -19 315
-25 198 -19 495 -41 750 -55 146 -7 272 -16 280 -19 8 -3 89 -10 180 -16 91
-6 201 -15 245 -20 44 -5 159 -14 255 -20 96 -6 229 -17 295 -25 66 -8 181
-20 255 -25 118 -9 308 -34 315 -42 2 -2 4 -257 6 -568 l3 -565 -42 -164 c-72
-277 -133 -393 -296 -557 -187 -187 -311 -250 -571 -289 -148 -22 -1238 -22
-1410 1 -146 19 -333 54 -521 100 -78 18 -266 58 -418 89 -152 30 -325 66
-384 79 -100 23 -323 70 -712 152 -91 19 -325 68 -520 110 -195 41 -476 99
-625 129 -148 29 -319 66 -380 80 -60 15 -261 58 -445 95 -184 38 -429 89
-545 115 -115 25 -264 56 -330 69 -66 14 -183 38 -260 55 -77 17 -250 53 -385
81 -135 28 -292 62 -350 75 -254 58 -857 175 -950 185 -58 5 -344 10 -661 10
-540 0 -562 1 -622 21 -89 30 -178 81 -377 218 -361 248 -629 410 -750 453
l-65 23 -677 3 c-607 3 -678 5 -690 19 -10 13 -14 176 -19 852 -3 460 -1 850
3 868 5 18 19 41 33 51 23 18 50 19 632 17 594 -1 610 -2 708 -24z m11529 8
c38 -5 75 -14 83 -20 10 -9 13 -108 13 -509 0 -435 -2 -499 -15 -510 -13 -10
-42 -11 -148 -1 -292 26 -522 41 -707 46 -107 3 -274 15 -370 25 -285 32 -523
51 -725 60 -170 7 -319 18 -685 50 -63 5 -202 15 -308 22 -179 11 -194 13
-213 35 -20 21 -21 24 -6 46 18 28 100 71 242 126 170 67 450 184 670 281 700
307 790 343 920 363 52 9 1177 -4 1249 -14z m-13653 -369 c33 -39 39 -563 7
-655 l-13 -40 -1443 -3 c-1236 -2 -1453 0 -1513 13 -134 27 -235 91 -261 163
-8 23 -13 85 -13 167 0 154 9 178 101 265 75 71 119 101 156 109 16 3 689 5
1496 4 1453 -3 1467 -3 1483 -23z m1589 -2131 l365 3 80 -27 c117 -39 240
-106 420 -228 281 -191 535 -357 598 -392 34 -19 89 -41 122 -49 98 -25 385
-36 993 -36 l573 0 142 -41 c287 -83 473 -156 464 -182 -2 -7 -94 -30 -213
-54 -115 -22 -335 -66 -489 -97 -154 -30 -332 -67 -395 -80 -63 -14 -203 -44
-310 -66 -107 -22 -278 -58 -380 -80 -183 -38 -305 -63 -490 -97 -85 -16 -166
-18 -770 -18 -724 0 -732 0 -890 53 -93 30 -162 68 -254 142 -154 122 -279
274 -342 416 -35 79 -60 223 -75 429 -16 238 -4 337 49 390 l27 27 205 -8
c113 -5 369 -7 570 -5z"/>
<path d="M2235 17140 c-38 -5 -88 -12 -110 -17 l-40 -9 -3 -312 -2 -311 51
-15 c37 -11 122 -18 290 -22 262 -8 299 -2 350 52 24 25 24 28 27 273 2 137
-1 264 -5 282 -7 26 -20 40 -54 59 -42 24 -51 25 -239 27 -107 0 -226 -3 -265
-7z"/>
<path d="M3735 17144 c-22 -2 -79 -9 -127 -16 l-88 -12 0 -312 0 -313 38 -11
c49 -15 252 -29 422 -29 110 -1 142 3 175 18 81 37 80 32 83 311 2 136 -1 263
-5 281 -7 26 -20 40 -54 59 -42 24 -52 25 -224 26 -99 1 -198 0 -220 -2z"/>
<path d="M5175 17144 c-22 -2 -79 -9 -127 -16 l-88 -12 0 -312 0 -313 38 -11
c53 -16 305 -32 452 -28 94 2 134 7 160 20 63 32 65 38 68 305 4 289 0 313
-61 345 -39 21 -56 23 -222 24 -99 1 -198 0 -220 -2z"/>
<path d="M7555 15439 c-47 -41 -88 -128 -226 -479 -203 -515 -305 -772 -384
-965 -43 -104 -115 -284 -160 -400 -45 -115 -117 -295 -160 -400 -43 -104
-108 -269 -145 -365 -60 -154 -140 -348 -242 -590 -17 -41 -54 -122 -81 -179
-41 -88 -47 -107 -38 -127 12 -28 56 -57 126 -83 28 -11 122 -51 210 -89 88
-39 181 -74 208 -77 45 -7 49 -6 85 31 42 43 37 31 217 489 70 176 159 401
200 500 40 99 199 495 353 880 271 678 416 1036 548 1352 35 84 69 173 76 197
24 91 -9 124 -185 182 -62 20 -159 60 -217 89 -145 72 -142 72 -185 34z"/>
<path d="M5450 14882 c-8 -3 -49 -33 -91 -66 -42 -34 -141 -108 -220 -166 -79
-58 -189 -139 -244 -181 -244 -185 -355 -267 -420 -315 -267 -194 -340 -252
-425 -341 -106 -110 -160 -197 -160 -260 0 -107 125 -243 429 -468 317 -234
1010 -753 1069 -802 83 -67 91 -64 208 88 33 41 88 111 124 153 89 108 140
186 140 217 0 38 -29 70 -123 135 -45 32 -179 130 -297 218 -118 88 -273 202
-345 254 -170 124 -235 179 -235 202 0 26 104 113 405 338 527 395 595 453
595 501 0 11 -44 75 -98 143 -54 68 -129 169 -166 225 -37 55 -72 105 -79 111
-17 13 -49 20 -67 14z"/>
<path d="M8733 14823 c-74 -86 -313 -428 -313 -448 0 -30 94 -109 367 -310
425 -313 635 -488 618 -515 -3 -5 -56 -54 -118 -108 -112 -98 -180 -150 -522
-399 -187 -136 -345 -284 -345 -322 0 -11 29 -55 65 -98 36 -43 104 -129 152
-191 47 -63 108 -132 135 -153 l50 -39 30 17 c41 25 1240 924 1308 981 94 80
148 143 181 211 41 83 43 135 6 214 -49 107 -126 174 -732 628 -313 235 -616
463 -673 508 -130 102 -141 103 -209 24z"/>
<path d="M15635 14663 c-81 -10 -305 -16 -846 -21 -598 -6 -739 -10 -752 -21
-9 -7 -21 -30 -27 -50 -11 -39 -12 -530 -1 -571 4 -17 22 -33 56 -50 l50 -25
594 -3 c500 -3 629 0 810 14 119 10 308 18 421 19 l204 0 9 40 c5 22 7 166 5
320 -5 305 -9 329 -63 353 -36 16 -319 13 -460 -5z"/>
<path d="M25060 20993 c-119 -3 -147 -7 -163 -21 -34 -31 -30 -45 166 -527 36
-88 137 -349 226 -580 88 -231 255 -667 372 -970 116 -302 242 -631 279 -730
37 -99 96 -252 130 -340 34 -88 101 -263 150 -390 48 -126 167 -437 265 -690
97 -253 236 -613 307 -800 178 -466 331 -865 493 -1285 75 -195 174 -454 220
-575 87 -229 238 -623 450 -1170 68 -176 182 -475 255 -665 72 -190 144 -379
160 -420 303 -786 701 -1827 808 -2115 53 -142 208 -549 294 -770 68 -176 117
-250 182 -275 61 -23 320 -32 836 -28 483 3 528 5 562 21 51 26 81 77 132 224
24 70 74 205 111 298 71 181 211 542 327 845 39 102 104 271 144 375 40 105
98 255 127 335 60 159 251 659 352 920 195 505 280 726 404 1055 116 304 294
770 386 1005 35 91 84 219 109 285 24 66 96 254 160 417 63 164 135 353 160
420 24 68 64 175 89 238 25 63 84 216 132 340 47 124 122 316 165 427 44 111
80 204 80 208 0 3 54 147 121 318 66 172 140 364 164 427 59 155 202 526 284
740 114 293 208 540 247 645 20 55 73 195 118 310 46 116 109 280 141 365 116
309 189 499 275 720 175 446 229 587 269 695 22 61 84 216 137 345 122 298
124 303 98 331 -43 48 -53 49 -551 48 -722 0 -739 -3 -798 -132 -18 -40 -56
-139 -85 -222 -29 -82 -77 -213 -107 -290 -70 -178 -220 -569 -288 -750 -30
-77 -92 -241 -140 -365 -48 -124 -122 -317 -165 -430 -43 -113 -119 -313 -170
-445 -51 -132 -116 -303 -145 -380 -126 -333 -208 -545 -235 -612 -17 -39 -50
-127 -74 -195 -24 -67 -90 -242 -146 -388 -57 -146 -135 -350 -175 -455 -40
-104 -110 -287 -155 -405 -46 -118 -118 -307 -160 -420 -43 -113 -92 -241
-110 -285 -18 -44 -54 -138 -80 -210 -26 -71 -87 -231 -135 -355 -48 -124
-118 -306 -155 -405 -38 -99 -109 -286 -158 -415 -50 -129 -120 -314 -156
-410 -37 -96 -93 -242 -126 -325 -65 -167 -174 -452 -225 -590 -18 -49 -86
-225 -150 -390 -64 -165 -136 -354 -160 -420 -24 -66 -96 -255 -160 -420 -64
-165 -132 -343 -151 -395 -19 -52 -76 -198 -127 -325 -77 -192 -99 -236 -133
-272 -26 -27 -47 -41 -56 -38 -32 13 -62 74 -99 201 -39 135 -73 230 -205 564
-40 102 -114 293 -164 425 -92 243 -195 510 -315 820 -62 159 -94 243 -244
643 -73 191 -191 501 -341 887 -62 160 -143 371 -180 470 -37 99 -79 209 -93
245 -15 36 -67 173 -117 305 -50 132 -104 274 -120 315 -32 85 -67 176 -210
550 -55 146 -132 345 -170 442 -39 98 -70 180 -70 184 0 3 -29 81 -64 172 -35
92 -150 392 -256 667 -105 275 -220 574 -255 665 -36 91 -98 253 -138 360
-198 520 -236 622 -325 850 -52 135 -111 290 -132 345 -21 55 -80 208 -130
340 -51 132 -111 292 -135 355 -23 63 -61 162 -83 220 -22 58 -71 185 -107
284 -77 207 -137 341 -168 375 -50 54 -55 55 -537 56 -245 1 -510 0 -590 -2z"/>
<path d="M43023 20991 c-71 -18 -116 -67 -157 -171 -14 -36 -57 -148 -95 -250
-38 -102 -113 -297 -166 -435 -53 -137 -123 -320 -155 -405 -32 -85 -97 -254
-143 -375 -132 -342 -411 -1068 -497 -1295 -78 -206 -132 -344 -300 -780 -50
-129 -129 -334 -175 -455 -45 -121 -122 -321 -170 -445 -101 -262 -210 -545
-302 -785 -36 -93 -105 -275 -154 -402 -49 -128 -129 -338 -178 -465 -49 -128
-124 -323 -166 -433 -42 -110 -105 -274 -140 -365 -100 -260 -240 -625 -332
-865 -47 -121 -120 -312 -163 -425 -43 -113 -115 -299 -160 -415 -45 -115
-113 -291 -150 -390 -97 -254 -235 -616 -323 -845 -41 -107 -116 -301 -165
-430 -50 -129 -122 -318 -162 -420 -39 -102 -107 -279 -150 -395 -149 -402
-228 -601 -293 -741 -78 -168 -87 -198 -87 -291 l0 -73 558 1 c306 0 587 3
624 8 111 12 145 59 236 321 27 80 83 226 124 325 86 208 119 292 183 465 42
115 112 297 260 680 31 80 108 280 171 445 63 165 142 370 175 455 33 85 98
256 146 380 47 124 123 320 169 437 46 116 84 215 84 218 0 3 27 74 61 158 76
188 147 374 205 537 94 262 116 299 192 332 42 19 59 20 196 14 83 -3 621 -7
1196 -7 1026 -2 1047 -1 1090 18 85 38 143 112 285 363 88 156 230 402 399
690 117 202 126 220 126 275 l0 46 -1376 -2 c-1329 -2 -1377 -2 -1390 16 -8
11 -14 33 -14 51 0 34 127 398 220 629 29 72 67 173 86 225 19 52 61 163 94
245 68 173 122 313 265 690 57 149 144 376 194 505 51 129 128 330 173 445 44
116 109 282 144 370 86 220 231 594 288 745 162 429 221 560 259 584 39 25
110 -89 187 -299 18 -49 94 -247 170 -440 137 -350 170 -437 360 -935 56 -146
157 -409 225 -585 205 -529 323 -836 645 -1685 43 -113 97 -252 120 -310 50
-126 299 -772 380 -990 67 -180 330 -862 397 -1030 25 -63 105 -272 178 -465
220 -579 416 -1092 545 -1425 67 -173 157 -407 200 -520 43 -113 101 -266 130
-340 29 -74 101 -263 160 -420 367 -970 394 -1038 438 -1105 52 -79 86 -94
239 -105 70 -5 343 -10 606 -10 l477 0 0 58 c0 78 -19 146 -80 282 -44 99 -88
207 -205 505 -41 103 -186 486 -221 582 -18 51 -54 143 -78 205 -55 139 -146
378 -198 518 -21 58 -72 191 -113 295 -83 212 -326 843 -387 1005 -21 58 -63
168 -93 245 -29 77 -102 266 -160 420 -59 154 -123 321 -142 370 -19 50 -59
153 -88 230 -29 77 -74 194 -100 260 -59 151 -181 466 -250 650 -29 77 -79
208 -110 290 -31 83 -83 218 -115 300 -33 83 -100 258 -151 390 -50 132 -128
337 -174 455 -45 118 -113 296 -150 395 -85 223 -222 581 -367 955 -152 391
-393 1022 -513 1340 -74 195 -346 903 -412 1070 -46 118 -196 512 -347 915
-31 83 -75 200 -98 260 -57 150 -111 265 -143 303 -14 17 -43 37 -63 43 -43
14 -1286 23 -1339 10z"/>
<path d="M51871 20989 c-94 -8 -155 -23 -179 -42 -10 -7 -12 -1247 -12 -6158
l0 -6149 588 1 c601 0 733 6 758 31 13 13 15 721 14 5422 0 4102 2 5417 11
5447 23 76 17 74 323 71 149 -1 1410 -4 2801 -6 l2530 -2 127 -22 c258 -44
398 -91 640 -213 155 -80 269 -162 398 -289 166 -163 226 -239 354 -452 138
-231 220 -430 286 -702 76 -312 90 -443 90 -820 0 -321 -10 -422 -66 -684 -46
-214 -107 -389 -204 -587 -182 -371 -363 -612 -587 -782 -310 -237 -589 -350
-1048 -424 l-140 -23 -2080 -6 c-2326 -6 -2111 2 -2191 -79 -23 -24 -102 -149
-190 -301 -82 -143 -177 -306 -211 -363 -35 -56 -63 -110 -63 -119 0 -23 45
-67 172 -169 93 -75 747 -619 1509 -1255 157 -132 360 -300 450 -376 90 -75
261 -218 379 -318 196 -166 344 -290 641 -537 716 -595 1233 -1029 1529 -1283
113 -97 279 -237 370 -311 91 -74 311 -258 490 -408 363 -305 456 -373 550
-402 100 -31 330 -38 1193 -39 697 0 778 2 784 16 10 26 -18 63 -87 117 -174
137 -710 579 -925 762 -71 61 -222 190 -335 286 -379 323 -593 503 -1020 860
-234 195 -513 429 -621 519 -107 91 -283 237 -390 326 -107 88 -341 284 -520
435 -179 151 -413 346 -520 435 -536 443 -927 795 -917 826 11 34 50 38 289
31 308 -10 1626 2 1754 15 55 6 186 20 292 31 314 33 414 54 678 140 326 106
576 226 845 404 260 172 578 490 772 772 165 238 331 549 446 836 91 224 109
283 165 509 101 415 111 464 127 650 5 69 17 179 25 245 39 322 1 783 -96
1178 -138 561 -313 1021 -512 1347 -92 151 -224 336 -301 422 -77 87 -317 307
-455 418 -255 204 -572 387 -911 524 -377 152 -508 185 -825 211 -110 9 -231
21 -270 27 -86 13 -6559 20 -6704 7z"/>
<path d="M64435 20990 c-33 -3 -67 -10 -76 -14 -26 -12 -40 -55 -50 -156 -10
-103 -4 -11763 6 -12027 l6 -153 3137 0 c2055 0 3184 4 3272 10 184 14 664 68
769 86 159 27 384 102 650 216 204 87 461 235 712 410 186 130 473 400 625
590 85 107 276 410 362 575 181 351 358 873 387 1148 3 33 13 119 22 190 19
157 13 536 -12 740 -52 433 -119 655 -315 1045 -142 281 -222 406 -445 690
-203 259 -334 392 -595 605 -226 185 -290 246 -290 275 0 14 43 66 123 148
220 226 328 365 464 597 217 369 353 723 433 1126 51 256 64 392 57 614 -17
534 -211 1185 -488 1635 -72 117 -259 380 -383 539 -113 146 -312 349 -424
433 -127 96 -372 242 -567 338 -255 126 -678 254 -940 285 -71 8 -218 25 -325
37 l-195 23 -2930 1 c-1611 1 -2957 -2 -2990 -6z m4370 -1384 c1666 -3 1670
-3 1815 -25 348 -53 483 -92 726 -211 67 -32 159 -87 205 -122 159 -119 360
-343 476 -528 66 -106 108 -197 157 -340 93 -267 116 -401 116 -664 0 -569
-109 -919 -406 -1306 -150 -196 -340 -352 -559 -460 -200 -98 -419 -167 -782
-246 l-113 -24 -2021 0 -2021 0 4 -69 c3 -62 8 -75 46 -127 23 -33 61 -92 85
-132 23 -40 92 -157 153 -260 60 -103 136 -234 169 -292 195 -351 259 -435
350 -460 41 -11 357 -13 1735 -13 927 0 1789 -3 1915 -7 325 -11 487 -43 752
-151 428 -174 624 -320 871 -648 202 -269 294 -467 372 -808 41 -179 53 -344
48 -661 -4 -244 -7 -278 -32 -397 -62 -291 -163 -524 -337 -781 -219 -323
-490 -547 -805 -668 -191 -72 -404 -125 -724 -178 l-135 -23 -2581 -2 c-2252
-3 -2583 -2 -2593 11 -7 8 -16 57 -21 108 -5 52 -10 2107 -10 4723 -1 4614 0
4716 30 4749 18 19 100 21 758 18 378 -1 1439 -4 2357 -6z"/>
<path d="M96383 20991 c-81 -5 -96 -10 -118 -31 l-25 -25 0 -6125 -1 -6125 53
-20 c50 -18 86 -19 672 -23 506 -3 621 -1 628 10 5 7 8 839 6 1961 l-2 1948
55 55 c30 31 164 147 299 257 135 111 317 262 405 337 88 75 333 280 545 456
212 177 628 525 925 773 297 249 743 622 990 829 248 207 601 503 785 657 184
155 454 377 600 495 343 278 499 431 463 459 -4 3 -440 4 -968 1 -1084 -6
-1002 0 -1136 -89 -86 -56 -359 -282 -504 -415 -113 -104 -339 -300 -495 -428
-348 -286 -489 -403 -600 -502 -209 -187 -380 -330 -716 -600 -104 -85 -255
-216 -335 -291 -197 -187 -253 -221 -293 -176 -15 17 -17 237 -19 3284 -2
3027 -3 3267 -19 3283 -42 42 -99 47 -613 49 -269 2 -532 0 -582 -4z"/>
<path d="M79803 16855 c-566 -65 -781 -123 -1198 -324 -367 -178 -613 -340
-990 -657 -212 -177 -300 -267 -457 -465 -292 -368 -426 -567 -543 -804 -127
-257 -192 -437 -285 -780 -114 -421 -140 -582 -147 -900 -13 -607 75 -1141
274 -1655 60 -155 235 -509 319 -645 63 -102 422 -588 554 -750 210 -257 647
-599 1020 -798 321 -171 857 -349 1208 -402 255 -38 807 -43 1086 -10 192 23
602 126 808 204 548 206 935 448 1336 835 147 143 197 202 414 491 313 418
396 552 532 860 172 389 249 647 325 1080 61 351 56 957 -10 1290 -42 208
-120 511 -175 677 -132 400 -272 677 -485 958 -333 439 -396 515 -525 641
-153 148 -598 497 -785 614 -268 168 -749 383 -1010 450 -66 17 -330 58 -524
81 -184 22 -588 27 -742 9z m777 -1400 c131 -18 353 -78 485 -132 471 -190
802 -451 1142 -900 247 -327 362 -577 486 -1058 l30 -120 5 -437 c4 -474 5
-471 -54 -723 -43 -190 -99 -363 -158 -492 -228 -497 -585 -923 -1019 -1217
-203 -138 -532 -270 -806 -326 -225 -45 -503 -60 -776 -41 -200 14 -303 30
-446 70 -471 133 -766 308 -1125 666 -119 119 -266 305 -386 489 -171 262
-343 699 -372 947 -38 314 -51 585 -37 759 16 191 56 481 76 550 73 248 158
464 248 624 201 360 566 758 896 977 315 209 739 362 1061 383 142 9 640 -3
750 -19z"/>
<path d="M89830 16855 c-506 -58 -679 -99 -1021 -246 -370 -158 -625 -306
-899 -523 -74 -59 -173 -137 -220 -173 -251 -195 -356 -306 -608 -639 -300
-398 -422 -600 -545 -904 -143 -355 -258 -807 -286 -1120 -5 -63 -15 -171 -22
-240 -11 -124 -10 -221 10 -570 14 -256 27 -362 61 -531 71 -348 195 -699 366
-1042 89 -178 124 -232 302 -470 92 -124 208 -281 259 -349 205 -276 497 -551
818 -767 275 -186 619 -354 900 -439 499 -153 608 -174 964 -193 257 -13 564
-7 755 16 234 28 658 138 909 237 292 115 645 310 869 479 199 151 418 352
543 499 139 165 441 570 565 761 72 110 219 405 283 569 109 278 217 655 237
832 6 51 17 143 25 203 36 270 46 606 25 845 -32 362 -155 874 -297 1235 -123
314 -220 484 -464 815 -330 447 -419 540 -864 897 -176 141 -279 214 -430 305
-261 157 -738 365 -980 427 -46 12 -322 53 -514 77 -179 22 -584 27 -741 9z
m785 -1400 c289 -43 689 -200 945 -370 414 -275 827 -787 1025 -1269 51 -124
121 -393 151 -576 45 -283 44 -716 -2 -1000 -76 -465 -297 -944 -612 -1324
-151 -182 -398 -405 -582 -528 -268 -178 -627 -315 -955 -365 -150 -22 -609
-25 -780 -4 -290 35 -708 178 -953 327 -248 150 -608 500 -780 757 -120 180
-266 462 -351 681 -53 136 -108 367 -121 511 -6 61 -13 220 -16 355 -10 348 1
454 86 860 52 248 168 511 338 771 120 181 232 321 377 464 244 244 404 361
680 498 263 131 517 206 765 227 157 14 659 4 785 -15z"/>
<path d="M98346 12595 c-53 -26 -39 -44 236 -312 247 -241 962 -953 2768
-2752 423 -421 789 -778 819 -798 84 -56 152 -72 345 -83 191 -11 1465 -14
1516 -4 38 8 47 27 30 60 -8 13 -122 129 -254 256 -133 128 -974 961 -1869
1852 -895 891 -1656 1642 -1690 1669 -73 59 -141 91 -223 106 -80 15 -1649 20
-1678 6z"/>
<path d="M65987 6060 c-51 -13 -87 -33 -116 -63 -21 -24 -23 -32 -17 -94 3
-37 8 -120 12 -183 6 -113 6 -115 -18 -138 -51 -46 -163 -48 -638 -7 -179 15
-218 11 -295 -26 -56 -28 -83 -66 -84 -122 -1 -21 -4 -36 -8 -34 -14 9 -6
-102 8 -119 39 -47 90 -52 284 -30 66 8 233 18 370 21 221 7 255 6 282 -9 48
-24 72 -67 88 -155 22 -127 67 -194 150 -221 45 -15 97 1 124 38 18 26 45 101
72 202 19 68 56 138 81 151 16 9 52 9 132 3 61 -5 245 -9 409 -9 l299 0 28
-31 c17 -20 30 -49 35 -75 21 -139 37 -188 76 -232 51 -59 87 -74 127 -53 40
21 79 69 92 114 5 20 17 91 26 157 8 66 20 125 25 130 14 14 140 13 359 -4
102 -7 264 -12 360 -10 160 4 179 6 223 28 68 33 101 86 94 148 -4 39 -12 54
-42 80 -64 55 -97 58 -463 38 -179 -10 -373 -15 -431 -12 -142 7 -146 11 -137
157 3 58 10 144 14 192 5 47 6 106 3 130 l-6 43 -115 0 c-104 0 -118 -2 -147
-23 -52 -37 -65 -96 -47 -213 15 -101 18 -237 6 -255 -17 -27 -192 -36 -552
-30 -367 7 -443 15 -460 46 -17 32 -13 106 18 324 12 77 3 118 -29 133 -34 17
-146 24 -192 13z"/>
<path d="M62910 6038 c-48 -33 -77 -79 -91 -146 -25 -125 -91 -390 -109 -437
-60 -164 -110 -285 -166 -400 -68 -142 -280 -471 -335 -521 -74 -67 -113 -81
-122 -41 -3 12 -2 164 3 337 4 173 4 324 -1 336 -18 48 -26 49 -486 50 l-433
0 -31 23 c-25 19 -35 21 -57 13 -50 -20 -133 -32 -210 -32 -87 0 -233 -22
-274 -40 -15 -7 -29 -19 -32 -26 -3 -8 6 -89 19 -182 38 -253 44 -500 40
-1577 -2 -539 -4 -995 -5 -1014 -1 -27 7 -42 35 -70 34 -35 38 -36 109 -36 85
0 120 18 147 76 20 41 39 176 39 275 0 107 8 121 72 128 29 4 211 7 404 9
l352 2 4 -155 c6 -165 13 -198 56 -243 54 -57 110 -70 178 -42 26 11 40 26 56
62 22 48 22 54 23 693 0 355 -4 778 -9 941 l-9 297 24 8 c13 5 86 8 161 7
l137 -3 34 29 c18 16 59 78 91 138 102 188 240 414 280 460 66 76 49 73 478
73 385 0 447 -5 477 -35 23 -22 21 -355 -3 -510 -11 -74 -21 -258 -31 -560
-24 -742 -33 -896 -56 -1008 -38 -189 -58 -236 -132 -315 -72 -76 -137 -89
-374 -72 -148 11 -172 11 -205 -3 -25 -10 -38 -23 -38 -34 0 -20 128 -190 196
-260 30 -31 49 -43 70 -43 16 0 112 21 214 45 220 54 317 97 412 185 116 106
159 242 173 545 4 77 15 217 26 311 10 94 19 198 19 231 0 33 9 143 20 244 12
106 18 209 15 244 -8 88 -9 176 -2 210 15 75 36 327 42 500 3 105 15 248 26
320 20 131 18 195 -6 215 -26 22 -84 22 -270 0 -152 -18 -256 -23 -515 -25
-179 -2 -339 -8 -357 -13 -17 -6 -48 -22 -69 -36 -21 -14 -42 -26 -46 -26 -4
0 8 26 27 58 19 31 52 110 75 175 52 153 71 193 141 302 80 124 103 178 96
228 -7 51 -43 88 -117 121 -87 39 -137 43 -180 14z m-1116 -1070 c-2 -18 -6
-228 -7 -466 -2 -372 -4 -434 -17 -442 -9 -6 -146 -10 -321 -10 -168 0 -347
-3 -397 -6 l-91 -7 -10 26 c-6 15 -11 202 -12 451 -1 377 1 429 15 451 15 23
21 25 139 28 67 1 253 4 414 5 l292 2 -5 -32z m-439 -1133 c138 0 287 3 331 8
l82 7 6 -67 c3 -38 9 -232 12 -433 5 -303 4 -367 -7 -376 -10 -7 -139 -7 -417
0 -339 9 -404 13 -412 26 -19 30 -5 807 15 840 4 7 30 8 73 3 37 -5 180 -8
317 -8z"/>
<path d="M61223 6009 c-56 -36 -66 -73 -75 -284 -4 -104 -12 -237 -18 -295
-17 -172 -18 -166 38 -179 64 -14 105 -17 120 -7 24 14 44 69 82 220 43 170
65 231 110 305 64 103 46 166 -65 228 -73 40 -142 44 -192 12z"/>
<path d="M75919 6015 c-53 -29 -54 -35 -59 -515 l-5 -445 -195 4 c-244 3 -322
-10 -371 -66 -28 -33 -30 -40 -24 -81 9 -58 20 -76 66 -101 44 -25 117 -29
350 -16 127 6 158 5 164 -6 14 -21 18 -286 6 -384 -21 -182 -51 -402 -61 -460
-37 -204 -96 -472 -120 -542 -54 -155 -154 -323 -210 -353 -16 -8 -39 4 -127
66 -137 97 -171 129 -183 175 -14 50 -14 1300 0 1456 7 85 8 165 0 265 -12
176 -12 419 0 513 5 39 12 91 16 117 9 68 -8 103 -60 122 -62 23 -1125 18
-1204 -6 -30 -8 -61 -22 -69 -31 -14 -13 -15 -164 -14 -1357 2 -1474 7 -1372
-57 -1403 -15 -8 -76 -17 -138 -20 -138 -8 -188 -23 -193 -57 -4 -34 18 -159
35 -192 34 -67 80 -72 287 -28 78 16 196 41 262 54 66 14 228 41 360 61 343
50 415 63 550 97 189 48 432 50 429 5 -4 -43 -155 -178 -328 -295 -139 -93
-157 -111 -140 -140 14 -23 203 -149 236 -157 46 -11 119 37 295 193 140 124
243 274 392 573 99 199 130 284 197 547 71 280 83 357 94 612 6 138 19 281 37
398 l27 182 46 2 c125 4 343 -5 402 -17 102 -21 115 -33 123 -115 8 -77 1
-195 -21 -346 -8 -58 -20 -305 -29 -585 -22 -750 -26 -791 -78 -878 -44 -73
-137 -157 -190 -172 -32 -9 -67 -9 -142 0 -144 16 -189 14 -216 -8 -24 -19
-24 -20 -6 -53 24 -46 205 -238 235 -249 18 -7 44 -3 100 15 43 14 124 36 183
49 124 29 200 63 261 117 80 70 99 147 113 455 3 77 12 201 20 275 7 74 16
254 20 400 4 173 13 319 26 420 18 136 19 168 9 265 -15 139 -8 349 14 440 29
121 31 166 7 196 -12 15 -38 31 -63 37 -24 6 -187 14 -373 17 -181 3 -357 9
-390 13 l-60 7 -3 85 c-6 140 16 309 64 497 24 94 44 185 44 201 0 66 -76 115
-232 147 -82 18 -77 18 -109 0z m-9 -44 c0 -5 -6 -14 -14 -20 -12 -10 -13 -8
-9 8 5 21 23 30 23 12z m-1068 -453 l26 -17 7 -217 c10 -303 4 -344 -66 -396
-60 -45 -630 -47 -680 -2 -37 34 -44 80 -44 299 1 199 2 212 24 258 44 90 74
96 451 94 222 -2 259 -4 282 -19z m-33 -903 c17 -8 34 -29 40 -47 16 -46 33
-298 29 -448 l-3 -124 -33 -23 c-58 -38 -125 -45 -391 -40 -255 5 -323 14
-360 48 -18 17 -21 31 -21 104 0 146 33 433 55 475 16 32 44 56 70 63 11 2
147 5 303 6 231 1 288 -2 311 -14z m13 -905 c21 -6 42 -19 48 -30 6 -11 10
-108 10 -234 l0 -215 -32 -36 c-41 -47 -100 -77 -242 -120 -80 -24 -158 -39
-246 -48 -152 -16 -222 -10 -253 22 -22 21 -22 26 -20 292 3 347 6 359 112
370 99 11 584 9 623 -1z"/>
<path d="M53618 5995 c-71 -15 -108 -38 -108 -68 1 -22 22 -69 78 -167 33 -57
68 -189 58 -216 -3 -8 -22 -22 -42 -30 -32 -14 -109 -15 -588 -11 -476 4 -558
7 -606 21 -56 17 -150 14 -150 -5 0 -5 -9 -9 -19 -9 -10 0 -21 -7 -25 -15 -3
-8 -13 -15 -22 -15 -15 0 -16 -28 -8 -377 10 -427 8 -801 -7 -978 -11 -140
-62 -495 -88 -610 -110 -486 -185 -691 -334 -906 -70 -102 -80 -134 -48 -163
18 -17 103 -46 189 -66 38 -9 48 -8 78 11 19 11 50 40 69 63 70 86 204 405
251 596 14 58 43 173 64 255 70 268 90 396 100 650 6 127 15 293 21 370 7 77
15 298 18 490 7 379 9 393 64 444 l26 24 658 -9 c362 -5 942 -9 1288 -9 558 0
639 -2 708 -17 93 -21 126 -16 164 24 26 27 28 35 28 110 0 79 -1 81 -33 108
-53 44 -110 56 -201 41 -135 -21 -428 -32 -776 -29 -340 3 -340 3 -389 28 -28
14 -58 36 -68 50 -10 14 -36 97 -58 185 -22 88 -48 171 -58 185 -42 57 -116
71 -234 45z"/>
<path d="M48683 5915 c-34 -7 -122 -32 -195 -54 -303 -92 -483 -130 -731 -155
-148 -14 -191 -27 -204 -62 -16 -42 77 -145 148 -164 42 -11 157 -3 330 24 52
8 114 16 139 18 l45 3 3 -255 c4 -306 -1 -354 -35 -388 l-25 -25 -261 5 c-241
5 -265 4 -298 -13 -66 -33 -87 -116 -49 -194 36 -75 56 -80 285 -78 110 2 233
5 274 9 l74 6 -6 -38 c-10 -61 -82 -229 -197 -461 -112 -225 -179 -336 -384
-639 -86 -126 -119 -184 -119 -205 0 -19 17 -56 49 -102 67 -99 87 -101 149
-16 25 34 102 157 171 273 70 116 155 259 190 317 76 128 152 239 164 239 5 0
11 -13 15 -29 12 -56 -4 -1138 -20 -1331 -22 -266 -21 -268 19 -313 l33 -38
84 0 c81 -1 85 1 110 29 48 53 53 119 53 732 1 305 -3 627 -8 715 -7 139 -6
165 8 199 24 57 33 49 168 -136 25 -35 65 -77 88 -93 40 -28 43 -28 102 -17
76 14 108 41 108 92 0 43 -7 53 -129 198 -98 118 -135 148 -237 200 -34 17
-76 43 -94 58 l-32 28 4 90 c5 109 28 162 85 197 21 13 41 23 46 21 4 -1 7 3
7 10 0 8 37 9 138 5 126 -6 140 -5 170 13 76 46 95 143 42 204 -46 51 -94 65
-268 75 -212 11 -197 -7 -207 264 -13 363 -12 367 11 412 31 59 83 84 212 100
59 8 141 21 182 30 127 26 142 77 53 176 -68 76 -133 92 -260 64z"/>
<path d="M69522 5889 c-56 -28 -122 -103 -122 -139 0 -33 34 -99 116 -227 32
-51 82 -133 109 -183 61 -112 113 -165 148 -156 32 8 177 115 206 152 31 40
23 80 -32 151 -56 73 -141 206 -195 304 -23 41 -51 84 -62 94 -32 29 -115 31
-168 4z"/>
<path d="M58940 5888 c-70 -5 -547 -7 -1090 -5 -532 3 -990 1 -1020 -4 -65
-10 -104 -36 -108 -72 -2 -15 12 -61 32 -106 l36 -79 0 -158 c-1 -202 -15
-396 -35 -473 -8 -33 -18 -86 -21 -118 -11 -100 -19 -97 301 -90 875 21 1908
17 2212 -9 104 -9 98 -44 98 574 0 506 -1 524 -19 538 -23 16 -181 17 -386 2z
m40 -266 c69 -24 65 -10 65 -250 0 -245 3 -235 -74 -280 l-46 -27 -885 0
c-696 0 -895 3 -934 13 -37 10 -51 10 -56 1 -6 -8 -10 -8 -16 2 -4 7 -3 14 4
17 9 3 12 49 12 162 0 228 21 357 62 373 7 3 423 5 923 4 690 -2 918 -5 945
-15z"/>
<path d="M80948 5864 c-14 -13 -516 -105 -626 -114 -67 -6 -144 -15 -170 -19
-26 -5 -126 -14 -222 -21 -96 -6 -265 -18 -375 -27 -141 -11 -339 -16 -670
-17 -359 -1 -481 -5 -515 -15 -61 -18 -160 -26 -160 -12 0 5 -9 8 -21 6 -17
-4 -19 -2 -9 10 20 25 -36 19 -61 -6 -53 -53 27 -221 135 -284 60 -35 141 -41
311 -22 77 9 196 19 265 22 187 8 290 15 340 23 53 8 78 8 277 -3 83 -4 156
-11 161 -14 5 -3 15 -129 21 -280 10 -239 10 -276 -3 -289 -24 -24 -194 -35
-556 -36 -270 0 -356 3 -444 17 -152 24 -238 23 -286 -4 -44 -25 -90 -92 -90
-131 0 -38 62 -105 109 -118 21 -6 266 -11 591 -14 539 -4 637 -9 665 -37 15
-16 12 -447 -4 -477 -29 -54 -40 -55 -646 -57 -566 -2 -787 4 -971 26 l-102
12 -33 -38 c-44 -49 -65 -104 -72 -186 -6 -64 -5 -67 21 -80 22 -12 173 -14
878 -15 888 -1 901 -1 920 -42 5 -10 9 -138 10 -287 1 -148 7 -327 13 -396 18
-183 -1 -230 -109 -278 -58 -26 -97 -31 -247 -34 -106 -2 -126 -5 -150 -23
-61 -46 -30 -172 61 -250 57 -49 129 -68 257 -66 130 1 229 30 331 99 68 45
102 80 132 139 38 76 41 117 41 579 l0 450 28 58 c16 31 37 62 48 67 13 8 50
7 122 -2 68 -8 273 -13 617 -13 283 -1 572 -5 642 -9 l127 -8 31 30 30 30 0
120 c0 91 -3 122 -14 131 -27 22 -84 23 -228 5 -127 -17 -210 -19 -728 -18
-594 2 -652 5 -680 39 -10 12 -11 60 -3 228 9 180 14 220 31 260 14 32 30 51
49 58 24 9 486 8 997 -4 l90 -2 9 35 c5 19 6 68 2 109 -6 63 -11 79 -34 102
-31 31 -123 54 -180 46 -389 -59 -382 -59 -651 -52 -181 5 -265 11 -289 21
-33 14 -33 15 -26 57 4 23 8 123 10 222 3 181 19 295 51 358 14 27 44 34 119
29 21 -1 224 10 520 29 94 6 262 10 375 9 199 -1 207 -1 234 21 25 20 28 26
22 66 -9 68 -53 142 -131 221 -72 72 -73 72 -127 72 -30 0 -57 -3 -60 -6z
m-2818 -244 c0 -5 -5 -10 -11 -10 -5 0 -7 5 -4 10 3 6 8 10 11 10 2 0 4 -4 4
-10z"/>
<path d="M70444 5841 c-110 -50 -111 -156 -3 -228 49 -32 53 -32 511 -23 222
4 249 3 264 -12 15 -15 16 -28 5 -137 -7 -72 -20 -143 -32 -177 -26 -70 -83
-129 -132 -138 -20 -4 -127 -6 -239 -5 -219 1 -243 -3 -303 -54 -17 -14 -39
-41 -50 -60 -18 -33 -18 -37 -2 -61 10 -14 29 -33 44 -43 35 -23 148 -42 253
-43 74 0 286 -17 316 -25 8 -3 5 -32 -11 -97 -62 -253 -143 -384 -252 -409
-22 -4 -129 -3 -255 3 -243 13 -290 7 -356 -49 -27 -23 -34 -37 -38 -78 -6
-65 9 -94 67 -123 l46 -23 794 3 c437 2 1008 1 1270 -1 436 -3 479 -2 513 14
44 21 76 63 76 101 0 43 -44 109 -87 130 -34 16 -63 18 -297 15 -215 -2 -258
0 -249 11 6 7 11 68 11 137 2 134 20 241 72 411 41 136 43 153 26 194 -26 62
-40 63 -284 33 -187 -24 -253 -27 -478 -27 -143 0 -263 2 -265 5 -3 2 7 44 22
92 15 49 42 140 59 203 40 144 74 218 104 226 12 3 74 3 137 1 63 -2 279 -10
482 -17 428 -15 484 -11 542 44 59 56 59 116 0 172 -19 17 -53 36 -79 43 -32
8 -345 11 -1103 11 -1008 0 -1060 -1 -1099 -19z m1397 -975 c136 -2 252 -7
259 -11 9 -5 4 -14 -14 -29 -24 -19 -28 -30 -36 -121 -15 -158 -41 -287 -62
-318 -42 -60 -56 -62 -354 -61 -320 1 -367 9 -392 60 -15 32 -14 40 10 148 30
127 78 259 111 300 27 33 68 43 162 39 39 -1 181 -4 316 -7z"/>
<path d="M50840 5792 c-41 -15 -117 -17 -780 -17 -648 0 -739 -2 -765 -16 -17
-9 -28 -21 -26 -30 34 -118 36 -149 36 -469 0 -201 -5 -370 -13 -443 -17 -147
-12 -174 32 -182 18 -4 386 -7 817 -8 732 -2 787 -1 812 15 14 10 31 26 36 36
7 12 6 124 -1 324 -9 226 -9 363 -1 529 13 265 12 273 -57 276 -25 1 -65 -6
-90 -15z m-710 -257 c239 -1 452 -5 472 -10 21 -4 39 -14 42 -24 13 -48 28
-273 25 -387 -4 -115 -7 -135 -24 -154 -51 -56 -41 -55 -555 -56 -261 -1 -483
3 -492 7 -35 18 -41 72 -34 318 9 294 20 329 96 315 19 -4 231 -8 470 -9z"/>
<path d="M52220 5539 c0 -5 5 -7 10 -4 6 3 10 1 10 -5 0 -6 5 -8 10 -5 17 10
11 25 -10 25 -11 0 -20 -5 -20 -11z"/>
<path d="M52195 5519 c-4 -6 -5 -12 -2 -15 2 -3 7 2 10 11 7 17 1 20 -8 4z"/>
<path d="M66602 4984 c-67 -34 -71 -65 -46 -311 6 -58 5 -63 -21 -87 -35 -33
-103 -46 -265 -53 -174 -7 -508 12 -580 32 -30 9 -93 18 -140 21 -74 5 -89 3
-117 -15 -69 -44 -67 -26 -56 -479 6 -224 14 -415 18 -426 7 -16 15 -17 54
-11 25 4 80 10 121 14 45 5 87 15 103 25 27 18 27 20 30 135 1 64 2 161 2 216
1 110 27 212 67 255 20 21 25 22 117 15 53 -4 221 -10 373 -14 334 -7 317 0
294 -117 -26 -134 -58 -385 -59 -474 l-2 -85 -60 -4 c-70 -6 -74 -6 -490 -2
-176 1 -392 6 -480 11 -88 6 -261 11 -385 12 -216 2 -227 1 -278 -21 -51 -23
-112 -79 -112 -104 0 -27 60 -107 99 -133 62 -40 107 -45 255 -24 196 28 474
41 937 43 l416 2 -25 -55 c-69 -158 -201 -295 -428 -445 -201 -134 -283 -175
-474 -239 -228 -75 -346 -104 -491 -117 -169 -15 -203 -31 -183 -83 6 -16 217
-198 269 -232 31 -20 43 -18 234 42 276 88 509 192 737 330 228 137 392 297
550 534 60 91 116 166 124 168 9 1 31 -23 55 -60 263 -411 604 -691 1075 -881
271 -110 385 -136 451 -102 74 39 249 232 249 275 0 25 -58 50 -117 50 -52 0
-231 22 -321 39 -51 10 -75 17 -257 68 -112 31 -281 112 -401 190 -151 100
-361 290 -446 405 -33 44 -59 69 -76 73 -15 3 -38 15 -52 26 l-25 21 45 -7
c25 -4 315 -9 645 -10 373 -2 628 -7 675 -14 221 -32 268 -27 324 39 34 41 37
123 6 162 -42 54 -79 60 -349 53 -135 -4 -269 -11 -297 -16 -42 -8 -60 -7 -95
7 -24 10 -46 19 -49 21 -12 11 31 23 82 23 31 0 60 5 63 11 4 6 13 8 20 5 25
-9 26 7 40 630 5 218 4 233 -14 255 -17 21 -27 24 -88 23 -37 -1 -107 -9 -155
-18 -145 -27 -716 -60 -788 -44 -48 10 -73 43 -66 88 15 94 18 270 6 299 -26
63 -176 102 -248 65z m851 -679 c87 -5 144 -30 151 -68 15 -73 18 -127 17
-351 -1 -183 -4 -252 -13 -257 -26 -16 -195 -22 -453 -15 -148 4 -299 10 -334
15 -35 4 -111 4 -170 -1 -138 -10 -170 -1 -76 23 39 10 91 19 117 19 42 0 49
3 61 28 24 46 52 193 72 377 13 124 32 203 56 232 9 10 59 12 253 8 132 -3
276 -7 319 -10z"/>
<path d="M52881 4893 c-63 -22 -76 -44 -74 -125 3 -82 14 -100 83 -131 41 -19
64 -21 240 -20 107 0 249 6 315 13 84 8 204 10 400 5 310 -8 506 3 645 36 47
10 115 26 151 35 37 9 78 14 90 12 23 -4 22 -5 -10 -25 -40 -25 -115 -45 -183
-47 -45 -2 -49 -5 -135 -96 -153 -163 -361 -320 -423 -320 -38 0 -115 50 -210
135 -47 43 -97 83 -111 91 -37 19 -101 28 -144 20 -46 -9 -105 -60 -105 -92 0
-26 82 -113 285 -302 l110 -103 60 8 c33 4 92 7 130 8 l70 0 65 61 c89 83 319
247 467 331 83 48 157 82 236 107 129 41 185 76 212 132 31 65 31 124 2 188
-44 95 46 88 -1116 89 -761 2 -1024 -1 -1050 -10z"/>
<path d="M69203 4810 c-85 -18 -169 -80 -192 -143 -10 -26 -8 -32 22 -62 45
-45 85 -54 294 -65 211 -11 290 -26 285 -55 -5 -32 -20 -221 -37 -467 -8 -125
-20 -272 -25 -326 -6 -55 -15 -218 -20 -363 -6 -189 -15 -296 -29 -377 -22
-123 -20 -173 10 -233 22 -44 134 -149 159 -149 24 0 87 50 300 239 312 276
380 359 388 472 4 57 3 61 -31 93 -20 18 -48 36 -62 40 -35 9 -100 -27 -195
-109 -41 -36 -113 -96 -160 -134 -84 -69 -137 -127 -126 -138 3 -4 6 -1 6 5 0
7 4 12 9 12 5 0 -4 -27 -21 -60 -16 -33 -34 -60 -39 -60 -15 0 2 81 27 130 13
25 28 68 33 95 10 55 28 394 36 685 6 244 23 612 30 675 3 28 13 85 21 128 31
159 18 167 -248 166 -106 -1 -238 1 -293 4 -55 3 -119 2 -142 -3z"/>
<path d="M59304 4490 c-12 -4 -75 -16 -140 -26 -106 -16 -224 -18 -1084 -22
-995 -4 -1052 -2 -1338 38 -69 10 -105 2 -116 -26 -11 -29 -6 -1315 6 -1352 6
-20 26 -45 50 -63 34 -24 51 -29 96 -29 105 0 163 56 194 190 18 76 17 569 -1
766 -11 119 -11 155 -2 173 27 49 54 52 515 62 486 11 1494 3 1573 -12 28 -6
57 -17 65 -26 10 -13 13 -105 13 -452 0 -397 2 -439 18 -468 39 -71 128 -123
213 -123 42 0 56 5 78 27 45 44 61 120 57 263 -3 69 -3 186 -2 260 4 292 2
668 -4 717 -5 38 -14 61 -35 83 -25 26 -34 30 -82 29 -29 0 -62 -4 -74 -9z"/>
<path d="M82818 4288 c-84 -15 -138 -79 -138 -165 0 -68 20 -113 63 -138 29
-18 50 -20 207 -19 96 1 4484 3 9750 5 l9575 4 33 23 c45 33 65 83 60 155 -6
78 -30 102 -125 122 -62 13 -1252 15 -9726 17 -5310 2 -9675 0 -9699 -4z"/>
<path d="M26802 4280 c-118 -17 -193 -85 -178 -162 8 -43 41 -94 79 -122 31
-23 19 -22 537 -19 80 0 4390 -1 9579 -3 8381 -3 9437 -2 9458 11 39 26 56 71
51 137 -5 72 -27 105 -94 138 l-49 25 -9665 1 c-5316 1 -9689 -2 -9718 -6z"/>
<path d="M49153 4275 c-21 -15 -23 -24 -23 -106 0 -110 13 -139 76 -169 50
-25 5 -24 540 -4 161 6 171 6 179 -12 10 -25 19 -432 10 -480 l-6 -37 -222 9
c-122 5 -279 9 -349 9 -125 0 -127 0 -170 -30 -59 -42 -74 -76 -56 -123 17
-46 64 -78 131 -91 29 -5 189 -13 357 -18 l305 -8 6 -130 c4 -71 8 -197 10
-280 l4 -150 -245 -3 c-135 -1 -339 2 -455 7 -233 11 -251 8 -298 -48 -15 -19
-27 -45 -27 -61 0 -29 38 -83 71 -101 12 -6 393 -10 1110 -9 1209 0 1137 -4
1179 65 28 45 25 59 -16 105 -53 59 -82 64 -275 51 -230 -15 -477 -14 -615 4
-88 12 -130 13 -172 5 -31 -5 -66 -10 -80 -10 -42 0 -18 24 40 40 31 8 60 18
64 23 4 4 9 111 10 238 1 181 4 233 15 240 29 17 156 24 442 22 168 -1 297 2
297 7 0 5 8 11 19 15 23 7 35 81 25 167 -6 57 -9 61 -42 75 -30 13 -53 13
-153 3 -64 -7 -223 -13 -353 -13 -201 -2 -238 0 -246 13 -13 20 -12 293 1 350
15 66 47 106 104 132 47 22 63 23 275 23 390 1 367 -1 411 45 62 65 64 132 6
193 l-32 34 -655 -5 c-608 -4 -757 -1 -1105 24 -55 4 -75 2 -92 -11z"/>
<path d="M62711 4161 c-24 -10 -50 -26 -58 -37 -25 -33 -10 -94 45 -185 27
-46 92 -172 144 -279 65 -134 107 -208 134 -237 67 -70 118 -70 190 2 38 39
44 50 44 87 -1 53 -31 128 -97 238 -28 47 -79 141 -113 209 -107 211 -166 252
-289 202z"/>
<path d="M52690 3967 c-31 -15 -74 -99 -74 -143 0 -36 24 -68 64 -89 20 -10
151 -14 587 -17 511 -3 560 -4 547 -19 -8 -8 -13 -31 -13 -50 2 -30 2 -31 6
-6 2 15 9 27 15 27 7 0 8 -82 4 -262 -17 -698 -26 -809 -70 -841 -6 -4 -76 -5
-156 -1 -120 5 -152 4 -183 -9 -23 -10 -37 -23 -37 -34 0 -10 24 -63 53 -117
67 -129 86 -142 212 -139 296 5 458 118 492 343 6 39 8 236 5 485 -5 511 -5
521 8 561 19 56 35 58 444 60 318 2 375 5 413 19 24 10 47 15 49 12 3 -3 -19
-23 -49 -46 -44 -32 -58 -50 -71 -88 -9 -26 -34 -70 -55 -98 -75 -94 -121
-167 -121 -190 0 -32 53 -75 93 -75 73 0 211 114 272 225 18 33 45 92 59 132
14 39 40 102 59 140 90 180 73 206 -133 192 -194 -13 -937 -10 -1005 4 -75 15
-322 13 -453 -3 -140 -18 -552 -7 -747 19 -178 24 -183 24 -215 8z"/>
<path d="M58080 3955 c-7 -8 -9 -15 -4 -15 5 0 1 -5 -8 -11 -10 -5 -18 -14
-18 -19 0 -5 -13 -31 -30 -56 -33 -53 -79 -94 -127 -113 -18 -7 -40 -25 -49
-40 -9 -14 -23 -30 -31 -34 -8 -5 -13 -28 -13 -67 0 -79 -27 -273 -47 -335
-23 -73 -79 -182 -124 -242 -41 -55 -138 -130 -204 -158 -519 -220 -485 -211
-1087 -290 -153 -20 -170 -32 -125 -93 42 -58 178 -207 215 -235 47 -36 64
-34 330 38 305 82 432 137 708 305 286 173 431 316 538 528 40 79 202 577 216
663 16 101 4 149 -45 172 -44 21 -79 22 -95 2z m130 -56 c0 -5 -4 -9 -10 -9
-5 0 -10 7 -10 16 0 8 5 12 10 9 6 -3 10 -10 10 -16z"/>
<path d="M70610 3722 c-27 -22 -30 -90 -9 -174 17 -64 19 -453 5 -893 -10
-323 -7 -354 44 -380 70 -36 176 -5 229 67 16 22 44 75 61 119 41 100 66 126
133 134 29 3 273 5 544 3 437 -3 494 -5 508 -19 10 -10 24 -59 34 -123 19
-112 35 -142 91 -171 73 -38 176 -21 204 34 12 22 14 140 11 696 -2 369 -6
677 -10 687 -14 35 -54 39 -155 16 -85 -19 -132 -22 -435 -25 -454 -5 -1001
11 -1075 31 -75 22 -152 21 -180 -2z m1488 -276 c23 -4 46 -15 50 -24 5 -10
10 -134 11 -277 3 -292 7 -276 -74 -312 -36 -16 -80 -18 -405 -21 -405 -4
-674 8 -732 33 -21 8 -45 26 -54 40 -38 57 -25 389 18 482 30 64 54 74 187 82
167 9 948 7 999 -3z"/>
<path d="M58413 3150 c-64 -39 -166 -162 -180 -218 -11 -46 11 -67 129 -125
62 -30 147 -69 188 -87 256 -111 501 -237 755 -388 141 -85 175 -97 218 -78
19 7 50 28 70 46 54 47 157 178 157 200 0 45 -52 81 -269 187 -119 58 -241
116 -271 130 -136 62 -504 241 -605 295 -62 32 -123 58 -136 58 -13 0 -38 -9
-56 -20z"/>
</g>
</svg>
