<svg width="1024" height="1024" xmlns="http://www.w3.org/2000/svg" version="1.1">

 <g>
  <title>Layer 1</title>
  <path stroke="null" id="svg_1" fill="#ec008c" d="m943.46037,516.60112c-36.82333,-6.01448 -73.64667,-10.92426 -110.47,-14.97482l0.98196,-3.06861c12.27444,0.73647 23.44419,1.47293 32.77277,2.33214c-10.92426,-1.59568 -21.60302,-2.82312 -32.28179,-4.17331l15.4658,-50.32522s74.62862,-211.48868 117.22094,-315.20773c-23.44419,46.52014 -43.94251,92.67205 -63.94985,140.78788c0,0 21.72577,-56.58519 33.01826,-84.69367c0,0 -38.41901,89.60344 -55.97147,135.01889c0,-0.85921 8.96034,-26.26731 13.37914,-38.90999c0,0 -27.37201,66.03651 -40.26018,99.423l3.3141,-9.45132s68.85963,-187.18528 108.62883,-278.62989a2237.99943,2237.99943 0 0 0 -110.47,253.71276l-1.47293,3.80508c0.85921,-2.33214 25.28536,-73.64667 38.05078,-109.11981c0,0 -27.86299,65.42279 -40.8739,98.19555c0,0 20.25283,-57.32165 30.68611,-85.92111c0,0 43.57428,-110.47 68.00042,-164.10932c0,0 -35.3504,73.64667 -51.30718,111.69744c0,0 -21.84851,49.09778 -32.0363,74.50588c0,0 45.53819,-117.46643 71.06903,-175.15632c-26.26731,53.0256 -48.72954,105.19199 -69.84159,159.32229c0,-0.73647 4.90978,-13.2564 7.36467,-19.63911c-26.14457,63.33613 -49.95699,126.18129 -72.41922,189.76291l53.76207,-159.56778s27.00378,-70.94629 41.24213,-106.17394c0,0.98196 -13.2564,30.07239 -19.51637,44.92447c0.24549,-2.2094 29.45867,-75.85607 45.16996,-112.6794a2628.81774,2628.81774 0 0 0 -119.06211,282.31222s28.96769,-85.92111 44.06526,-128.02245c0,0 -31.54532,76.2243 -46.15191,114.64331c0,0 41.48762,-118.81662 63.70437,-177.73395c0,0 27.12652,-66.40474 41.73311,-99.17751c-36.82333,77.20625 -68.73689,153.67604 -98.19555,233.21444c0,0 -4.54154,12.27444 -6.75094,17.6752c2.08666,-5.76899 58.79459,-158.83131 91.44461,-234.56463c-29.09043,61.37222 -54.37579,122.74444 -78.80193,185.5896c0.73647,-1.96391 12.27444,-32.40453 17.42971,-47.74759c0,0 -34.61393,87.02581 -50.69345,131.09107c0,0 54.00755,-154.16702 83.58897,-230.39132c-25.4081,54.00755 -47.99308,107.64688 -69.71884,163.25011c0.98196,-2.70038 30.19513,-82.23878 45.66093,-122.13072l-15.4658,36.82333s12.27444,-31.91356 27.86299,-70.20982l13.74738,-11.41523l-13.87012,9.45132c13.50189,-33.75472 29.09043,-72.05099 40.38292,-98.19555c-14.23836,27.24927 -27.6175,54.25304 -40.13743,81.50231l-7.11918,4.54154c7.61016,-18.90264 15.09757,-36.82333 21.23479,-51.06169q-12.27444,26.5128 -24.54889,52.90285l-9.9423,6.6282l4.54154,-12.27444l3.92782,-9.20583c3.68233,-2.70038 7.24192,-5.5235 11.047,-8.22388l-10.06504,7.7329c7.36467,-16.93873 21.97126,-51.30718 30.9316,-70.94629c-12.27444,24.54889 -23.44419,49.09778 -34.49119,73.64667c-5.89173,3.92782 -12.27444,7.97839 -17.42971,12.27444c2.70038,-6.87369 5.27801,-13.74738 7.97839,-20.37558c6.01448,-4.66429 12.27444,-8.96034 16.32501,-12.27444c-5.27801,3.19136 -10.18779,6.50546 -15.34306,9.81956c10.92426,-27.37201 21.48028,-53.14834 30.44062,-73.64667c-14.11561,25.77633 -26.88103,52.04364 -39.15548,79.04742l-14.97482,10.31053l0.73647,-1.84117l-0.85921,1.84117l-4.54154,3.19136c3.19136,-8.34662 6.6282,-16.93873 9.81956,-25.16261c5.27801,-4.17331 10.43328,-8.22388 15.83403,-12.27444l-14.72933,9.57407c6.01448,-15.34306 12.27444,-29.8269 16.69324,-41.48762q-11.047,21.72577 -21.35753,43.57428c-6.50546,4.29606 -12.27444,8.59211 -18.90264,12.88817c6.25997,-15.83403 12.27444,-30.80886 18.16618,-44.188l5.89173,-4.66429l-5.5235,3.68233l5.03252,-12.27444l-5.64624,12.27444a914.32336,914.32336 0 0 0 -85.92111,62.23143c28.96769,-25.89908 57.56714,-49.09778 88.86698,-72.29648a926.22957,926.22957 0 0 0 -76.59253,54.62128s24.54889,-20.74381 36.82333,-30.56337a1121.39323,1121.39323 0 0 0 -151.71213,134.28242s-10.31053,10.43328 -15.4658,15.83403a1374.73776,1374.73776 0 0 1 147.29333,-141.64709a1172.20943,1172.20943 0 0 0 -151.22115,138.33299a1356.93982,1356.93982 0 0 1 147.17059,-140.78788a1170.98199,1170.98199 0 0 0 -155.27172,142.13807s-15.34306,16.07952 -22.83047,24.54889a1430.21825,1430.21825 0 0 1 161.77718,-162.3909a1183.15824,1183.15824 0 0 0 -83.09799,71.68275a1291.02605,1291.02605 0 0 1 149.01175,-128.51343a1046.76461,1046.76461 0 0 0 -195.5319,161.65443a1538.96983,1538.96983 0 0 1 115.62527,-114.27508a1037.19054,1037.19054 0 0 0 -72.54197,60.26752c28.47671,-27.6175 56.46244,-52.90285 87.2713,-78.06547a1273.10536,1273.10536 0 0 0 -227.44545,226.4635c-1.22744,-0.98196 -65.42279,88.86698 -71.19178,97.33634c0,0 12.27444,-19.14813 18.7799,-28.7222c13.74738,-19.02539 27.74024,-37.80529 42.22409,-56.3397a1601.324,1601.324 0 0 1 193.07701,-209.64751a1216.64292,1216.64292 0 0 1 103.22808,-80.88859a1072.17271,1072.17271 0 0 0 -140.2969,108.50609c27.00378,-26.14457 54.00755,-50.44797 82.97524,-74.50588a1104.69999,1104.69999 0 0 0 -147.66157,127.65422a1564.13244,1564.13244 0 0 1 115.9935,-114.02959a1231.12676,1231.12676 0 0 0 -222.29019,221.67646s23.44419,-31.42258 35.47314,-46.88838c0,0 -24.54889,27.37201 -36.08687,41.48762c17.55246,-21.97126 35.22766,-43.32879 53.63932,-64.56358a1341.35127,1341.35127 0 0 1 244.38419,-222.78116a1095.86239,1095.86239 0 0 0 -143.85649,111.08372c27.74024,-26.75829 55.35774,-51.55267 85.0619,-76.10155a1206.82336,1206.82336 0 0 0 -239.10618,229.40936a2134.15763,2134.15763 0 0 0 -159.56778,233.21444c-52.04364,6.01448 -104.08729,13.62463 -158.09484,23.07596c-21.60302,4.05057 -85.18464,15.71129 -103.35082,27.49476a157.35838,157.35838 0 0 0 32.0363,-3.06861s-14.60659,3.92782 -21.84851,6.38271c0,0 27.37201,-4.54154 40.8739,-6.99643l-13.62463,4.17331s27.12652,-3.19136 40.75116,-5.15527l-4.54154,0.98196c-2.08666,0 -68.24591,13.74738 -71.43727,21.60302c6.75094,3.3141 56.21695,-7.11918 64.44083,-8.59211l1.59568,0s-25.4081,6.75094 -37.80529,11.29249c0,0 23.68968,-2.70038 35.59589,-4.4188c0,0 -20.13009,5.03252 -30.07239,8.10113a139.68318,139.68318 0 0 0 -29.58141,9.45132a85.92111,85.92111 0 0 0 16.44776,-2.2094s14.48384,-1.59568 21.84851,-2.70038a194.4272,194.4272 0 0 0 -35.96412,10.80151a234.31914,234.31914 0 0 0 32.40453,-5.27801l-5.76899,1.71842c53.88481,-8.71486 106.91041,-18.04343 161.04071,-25.89908l12.27444,-1.71842l14.97482,-1.47293l-14.97482,1.96391a1377.06991,1377.06991 0 0 0 -161.40894,30.56337s-18.28892,4.66429 -27.12652,7.7329l10.06504,-1.47293a67.87768,67.87768 0 0 0 -17.92069,7.48741c10.80151,1.96391 68.12317,-9.32858 80.39761,-11.53798c-0.98196,0 -32.28179,7.97839 -47.74759,13.13366c0,0 29.45867,-3.68233 44.06526,-5.76899a576.89888,576.89888 0 0 0 -58.05812,16.44776a73.64667,73.64667 0 0 0 -13.87012,5.03252a565.48365,565.48365 0 0 0 57.19891,-9.9423l6.87369,-1.1047a405.05666,405.05666 0 0 0 -61.37222,16.20227a428.13262,428.13262 0 0 0 44.31074,-7.48741s-10.43328,2.70038 -15.34306,4.17331l50.07973,-8.34662a401.61982,401.61982 0 0 0 -71.06903,20.49832a373.26585,373.26585 0 0 0 46.52014,-5.76899s-24.54889,6.01448 -36.82333,9.81956l9.32858,-1.47293s-24.54889,6.75094 -23.81242,10.43328s26.63554,-1.47293 29.94964,-1.96391l-1.47293,0l10.80151,-1.1047a217.01218,217.01218 0 0 0 -35.71863,10.55602a331.41,331.41 0 0 0 38.78724,-6.38271l14.23836,-1.96391a295.56862,295.56862 0 0 0 -45.16996,14.48384s-6.50546,2.08666 -6.87369,3.06861a247.20731,247.20731 0 0 0 35.96412,-5.64624l89.4807,-14.72933a1062.59864,1062.59864 0 0 0 -110.47,24.54889l16.69324,-2.57763l-6.38271,1.84117l33.26374,-5.5235s-55.84872,12.27444 -54.86677,18.04343c3.68233,4.4188 53.51658,-6.25997 59.40831,-7.36467c0,0 -23.81242,6.50546 -35.3504,10.80151l13.87012,-1.35019s-18.28892,4.66429 -27.00378,7.85564l19.63911,-3.06861l-0.73647,0a81.50231,81.50231 0 0 0 -24.54889,9.9423c10.31053,2.33214 60.51301,-7.61016 72.05099,-9.69681c0,0 -26.88103,6.87369 -40.01469,11.53798l12.27444,-1.35019l-14.3611,3.92782l27.98573,-4.54154a294.58666,294.58666 0 0 0 -53.51658,14.60659a69.84159,69.84159 0 0 0 12.27444,-1.47293l-1.1047,0c25.28536,-1.47293 54.86677,-6.99643 80.02938,-10.92426c0,0 -38.78724,8.10113 -57.81263,13.50189c0,0 36.82333,-6.01448 76.59253,-12.27444l-1.22744,2.70038a732.53884,732.53884 0 0 0 -92.30382,22.95321c29.70416,-4.29606 59.6538,-9.69681 89.60344,-14.85208c-35.3504,72.05099 -68.00042,144.22472 -98.19555,218.97609a905.6085,905.6085 0 0 0 47.01112,-90.33991l-27.74024,62.59967s34.85942,-71.06903 52.04364,-106.66492c0,0.73647 -10.06504,23.44419 -14.85208,34.85942c0,0 31.91356,-62.23143 47.99308,-93.28578l-4.54154,9.57407c-30.44062,63.58162 -62.72241,133.79144 -89.23521,200.07344c22.70772,-28.47671 71.8055,-137.59652 89.35795,-173.80613l1.84117,-3.80508s-28.59946,63.94985 -42.10134,96.59988l43.94251,-85.92111s-23.07596,50.93894 -34.12296,76.59253c0,0 -28.84494,65.66828 -44.55623,97.45909a506.68906,506.68906 0 0 0 30.31788,-57.07617s19.76186,-38.6645 29.45867,-58.18087c0,0 -33.87747,76.83802 -51.9209,114.27508c18.16618,-30.07239 35.10491,-68.00042 50.32522,-99.91398l-6.99643,15.95678c27.98573,-57.19891 55.60323,-113.04763 83.71171,-168.40538l2.08666,0c-23.56693,47.01112 -46.02917,94.51322 -68.12317,143.97923c0,0 -23.56693,52.78011 -35.22766,79.29291l15.34306,-30.68611s-18.65716,44.188 -28.23122,65.91377c36.82333,-57.32165 77.08351,-150.85292 108.50609,-213.82082c0,0 -36.08687,78.55644 -52.78011,118.32564c0,0 35.22766,-69.5961 53.14834,-104.33278c0,0 -46.52014,101.6324 -68.00042,153.18506c0,0 -16.44776,36.82333 -25.53084,55.60323c29.09043,-49.09778 57.19891,-114.27508 82.23878,-166.19598l8.46937,-16.93873c-28.10848,59.28557 -53.27109,118.69388 -81.13408,177.73395c23.1987,-41.61037 44.06526,-88.25325 64.80907,-131.33655c0,0 -12.27444,27.24927 -18.28892,40.8739c0,0 39.15548,-80.02938 59.40831,-119.79858c-30.68611,63.70437 -58.30361,126.42678 -85.18464,191.72682c22.58498,-41.11939 43.20604,-83.9572 64.0726,-126.05854c-0.85921,2.08666 -30.44062,67.14121 -44.92447,100.15947c0,0 8.96034,-17.92069 13.2564,-27.00378c-14.48384,32.89551 -28.47671,68.00042 -44.06526,100.03672a741.86741,741.86741 0 0 0 58.18087,-107.52413l-1.84117,4.29606l14.48384,-28.23122s-35.3504,80.39761 -54.25304,119.67583c21.97126,-38.78724 41.61037,-82.48427 61.37222,-122.74444l17.42971,-34.61393s-39.7692,87.88502 -57.93538,132.93223c0,0 -12.27444,28.35397 -20.13009,41.9786a1297.777,1297.777 0 0 0 64.0726,-126.42678s55.84872,-112.80214 92.54931,-182.2755c-42.83781,81.99329 -80.39761,162.02266 -117.71192,247.20731c0,0 15.95678,-32.40453 23.81242,-49.09778l-8.10113,18.41167l41.85586,-85.92111c-28.96769,61.37222 -54.74402,126.79501 -84.07994,186.93979c33.75472,-49.09778 70.45531,-133.17772 96.96811,-187.67625c0,0 -28.47671,63.94985 -41.73311,96.35439l19.14813,-36.82333l-37.92803,85.30739s20.37558,-41.11939 30.44062,-61.37222l-1.1047,2.33214s-27.6175,65.30004 -41.61037,97.45909c37.80529,-62.35418 72.9102,-142.01532 105.80571,-208.66555c0,0 -31.05434,68.12317 -45.53819,102.7371l15.83403,-30.68611s-12.27444,26.39006 -17.79794,39.7692l36.82333,-73.64667c-27.37201,57.56714 -52.28913,116.11624 -79.5384,173.56064c0,0 18.53441,-34.85942 27.24927,-52.65737l-1.59568,3.92782s67.3867,-134.03693 102.12338,-200.56442c0,0 -45.16996,93.28578 -66.15925,140.66513c36.08687,-73.64667 72.05099,-144.10198 111.20647,-215.17101l2.57763,0c-49.09778,91.56735 -91.56735,180.18884 -133.91419,276.78872c46.76563,-94.75871 90.46265,-185.22136 140.78788,-277.40244c18.65716,-1.59568 36.82333,-3.19136 56.09421,-4.54154l27.86299,-1.1047c19.02539,0 37.68254,-0.85921 56.3397,-1.22744c-11.41523,39.7692 -22.58498,79.5384 -33.141,119.79858c-2.33214,7.97839 -4.54154,15.95678 -6.75094,23.81242c-11.29249,40.26018 -33.87747,117.34369 -36.82333,158.34033a273.22913,273.22913 0 0 0 11.53798,-30.80886a254.57197,254.57197 0 0 0 -7.61016,38.05078c4.4188,-5.40076 30.9316,-104.82375 33.87747,-115.37978l29.33592,-105.80571s-5.15527,20.49832 -7.61016,30.80886c-3.43684,12.27444 -6.87369,23.81242 -10.18779,35.59589c-1.1047,0 -35.59589,133.42321 -38.17352,152.20311c0,0 8.71486,-26.88103 12.27444,-40.38292c0,1.1047 -10.67877,44.31074 -7.11918,46.64289c4.29606,-1.71842 13.2564,-33.141 14.72933,-37.80529a267.46014,267.46014 0 0 0 -5.40076,34.2457a264.88251,264.88251 0 0 0 11.41523,-30.31788a247.94378,247.94378 0 0 0 -7.36467,36.82333a140.66513,140.66513 0 0 0 7.85564,-22.70772s15.34306,-51.79815 22.83047,-77.69723c0,0 13.99287,-43.20604 20.86656,-64.80907c0,0 -15.34306,56.21695 -22.21674,84.57092c0,0 -7.24192,28.23122 -10.43328,42.46958c0,0 -5.76899,23.68968 -7.48741,35.47314l1.22744,-3.3141s-1.22744,8.59211 0,9.32858s8.71486,-19.02539 9.69681,-21.84851c0,0 -0.85921,5.76899 -1.22744,8.59211c20.9893,-52.65737 38.78724,-122.74444 54.49853,-176.99749l36.82333,-129.37264l1.84117,0c-6.75094,23.07596 -20.49832,70.20982 -27.98573,97.58183c0,0 -3.3141,11.047 -4.90978,16.5705c-8.71486,28.96769 -17.18422,57.81263 -25.28536,87.02581c-4.05057,15.09757 -30.68611,109.48804 -26.75829,122.74444c5.15527,-4.29606 15.71129,-41.36488 17.79794,-48.36131c0,0.98196 -7.85564,30.68611 -9.81956,45.2927c0,0 6.6282,-20.13009 9.69681,-30.31788c0,0.85921 -5.27801,21.60302 -6.50546,31.91356c0,0 9.57407,-29.8269 13.87012,-44.80172c0,0 -5.03252,24.54889 -6.38271,36.82333s-0.85921,4.17331 -1.22744,6.25997c0,0 4.90978,-14.72933 7.24192,-22.21674c17.79794,-51.67541 32.77277,-106.41943 47.74759,-158.95405l14.97482,-52.78011s17.42971,-56.58519 26.39006,-85.92111c-3.68233,13.37914 -9.69681,35.59589 -13.2564,49.09778c-16.20227,52.28913 -32.40453,105.80571 -47.37936,159.81326c-3.92782,14.11561 -30.56337,108.99707 -26.39006,121.02602a61.37222,61.37222 0 0 0 8.34662,-18.53441a67.63219,67.63219 0 0 0 -1.84117,20.13009c2.2094,-1.22744 5.27801,-10.31053 6.13722,-12.27444c0,0 -1.22744,6.50546 -1.59568,9.69681c8.46937,-21.97126 15.71129,-51.06169 22.21674,-73.64667c0,0 2.82312,-8.46937 4.17331,-12.27444c0,1.1047 -15.58854,57.19891 -20.00734,84.81641c0,0 17.06148,-55.72598 24.54889,-83.71171c0,0 -15.34306,56.70793 -19.8846,84.69367c0,0 17.6752,-58.18087 26.02182,-87.2713l6.87369,-21.23479s-19.63911,71.06903 -25.89908,106.78767c0,0 7.85564,-24.54889 12.27444,-37.43706c-0.85921,3.3141 -11.29249,46.52014 -8.22388,49.83424c5.89173,-4.54154 23.07596,-67.26395 25.53084,-75.97881c0,0 -10.67877,44.06526 -13.01091,66.52749c0,0 7.7329,-20.37558 11.047,-30.68611c0,0 -5.76899,24.54889 -7.7329,36.82333c17.18422,-49.09778 31.91356,-108.2606 46.15191,-158.83131l29.21318,-102.7371s-5.40076,20.86656 -7.97839,31.42258c-5.89173,19.63911 -11.53798,39.27822 -17.18422,59.04008c-1.47293,0 -37.68254,141.89258 -41.36488,159.56778a99.54574,99.54574 0 0 0 -3.3141,20.37558a265.61897,265.61897 0 0 0 11.53798,-34.98217a236.65129,236.65129 0 0 0 -4.78703,31.17709a532.09716,532.09716 0 0 0 22.83047,-69.10512a646.49498,646.49498 0 0 0 -12.27444,63.82711a1662.69623,1662.69623 0 0 0 49.09778,-159.56778s-6.87369,28.59946 -10.06504,43.0833c0,0 8.71486,-26.02182 12.27444,-39.03273q-8.46937,29.09043 -16.5705,58.42635s-30.31788,110.47 -26.88103,111.82019a217.99413,217.99413 0 0 0 11.29249,-34.12296a249.04848,249.04848 0 0 0 -4.54154,30.68611c16.32501,-34.12296 35.96412,-112.06568 46.52014,-149.62548l60.63575,-194.4272c21.11204,1.1047 42.22409,2.2094 63.70437,3.80508c0,0 -30.44062,-3.92782 -62.59967,-7.7329l0.73647,-1.96391c44.43349,3.19136 88.25325,7.48741 133.05498,13.37914c-45.41544,-7.36467 -88.86698,-12.88817 -132.07302,-16.81599l1.1047,-3.55959c23.1987,1.59568 46.52014,3.3141 70.20982,5.64624c-23.32144,-3.06861 -46.3974,-5.76899 -69.47335,-7.97839l0.61372,-1.96391c43.81977,2.70038 87.2713,6.38271 131.70479,11.41523c-44.06526,-7.97839 -85.92111,-13.87012 -129.61813,-18.41167l0.85921,-2.57763c21.35753,1.1047 43.94251,2.33214 60.02203,3.68233c0,0 -28.10848,-3.68233 -58.91733,-7.24192l0,-2.2094c43.57428,3.19136 86.53483,7.61016 130.60009,13.2564c-43.57428,-7.11918 -85.92111,-12.27444 -129.49539,-16.81599l2.2094,-7.36467c21.35753,1.47293 43.20604,3.19136 59.16282,4.66429l-20.37558,-2.57763s60.39027,5.40076 90.46265,8.96034c-42.71507,-7.85564 -84.20269,-13.74738 -126.91775,-18.41167l0,-1.22744l8.96034,0l-8.8376,-0.85921l2.57763,-8.46937c37.80529,2.45489 75.73332,5.64624 114.64331,9.81956c-38.41901,-6.75094 -75.36509,-12.27444 -112.6794,-16.07952l0.85921,-2.82312c18.53441,1.35019 36.82333,2.70038 55.72598,4.54154l-55.235,-6.13722l0,-1.59568c21.72577,1.47293 44.188,3.3141 60.51301,4.90978c-20.13009,-2.70038 -40.01469,-4.90978 -59.89929,-6.87369l1.35019,-4.17331l5.5235,0l-1.22744,0l30.68611,2.45489l-34.73668,-3.68233l2.2094,-7.11918c36.82333,2.45489 73.64667,5.64624 111.94293,9.69681c-36.82333,-6.50546 -73.64667,-11.41523 -110.47,-15.71129l0,-0.98196c29.21318,2.33214 80.88859,6.6282 111.45195,10.06504c0,0 -72.17373,-11.53798 -108.62883,-15.58854c1.22744,0 37.5598,3.06861 55.84872,5.03252c-19.02539,-2.57763 -37.80529,-4.78703 -56.46244,-6.75094l1.22744,-4.17331c10.43328,0.85921 20.86656,1.47293 31.42258,2.45489c-10.55602,-1.35019 -20.74381,-2.2094 -31.05434,-3.3141l1.22744,-4.17331l28.7222,2.2094l-28.47671,-2.94587l1.71842,-5.89173l9.20583,0.61372l-9.08309,-0.85921l0.98196,-3.3141c36.08687,2.57763 72.17373,5.89173 108.99707,10.06504c-36.82333,-6.25997 -72.17373,-11.29249 -107.27864,-15.34306l2.08666,-7.11918l1.35019,-4.05057l24.54889,1.96391l-24.54889,-2.70038l1.71842,-5.27801c33.50923,3.06861 82.8525,7.85564 113.29312,12.27444c-38.05078,-6.13722 -75.1196,-11.047 -112.31117,-15.09757l0.85921,-2.94587c13.37914,0.73647 26.14457,1.59568 36.82333,2.45489c-12.27444,-1.71842 -23.81242,-3.06861 -35.71863,-4.54154l5.64624,-18.41167c38.29627,3.19136 74.99685,6.99643 112.80214,11.90621zm-478.70333,96.47713l0.98196,-1.59568l2.08666,0l-0.85921,1.59568l-2.2094,0zm306.86111,-455.01365c-7.48741,5.64624 -14.97482,12.27444 -22.46223,17.6752l0,-1.1047l13.74738,-12.27444c-4.54154,3.43684 -8.59211,6.87369 -12.27444,10.31053c2.08666,-5.40076 4.05057,-10.92426 6.13722,-16.32501c8.46937,-7.36467 17.06148,-14.72933 25.77633,-21.97126c-3.19136,7.11918 -6.01448,13.74738 -8.46937,19.39362l2.2094,-5.76899c-1.71842,3.19136 -3.06861,6.6282 -4.54154,10.06504l-0.12274,0zm18.16618,-6.50546l-7.7329,17.18422c-5.03252,3.92782 -10.18779,8.10113 -15.22031,12.27444l6.01448,-15.4658c5.64624,-4.66429 11.29249,-9.45132 17.06148,-13.99287l-0.12274,0zm-3.43684,1.71842l4.05057,-3.3141l-4.05057,3.3141zm-164.72304,396.95553l0,1.22744l-2.45489,0l0,-1.22744l2.45489,0zm-3.68233,6.25997zm-4.29606,-5.15527l-2.57763,0l-34.49119,-0.85921l37.43706,0l-0.36823,0.85921zm-130.23185,32.65002l1.84117,0l-1.84117,0zm8.34662,0c27.12652,-0.98196 54.37579,-1.84117 81.7478,-2.33214l30.56337,0l0,0.98196c-36.82333,0 -73.64667,0 -112.18842,1.59568l-0.12274,-0.24549zm36.20961,-58.18087q47.25661,-1.47293 93.77675,-1.47293l0,1.22744c-30.68611,-1.47293 -61.49497,-1.22744 -93.77675,-0.36823l0,0.61372zm16.69324,-25.65359l1.35019,-2.08666l7.85564,0l-7.48741,0l0.73647,-1.22744c12.27444,0 24.54889,-0.73647 35.96412,-0.85921l47.99308,0c0,1.71842 -0.98196,3.3141 -1.59568,4.90978q-41.73311,-1.84117 -84.81641,-1.35019l0,0.61372zm12.27444,-18.28892c16.44776,-24.54889 33.38649,-49.09778 51.42992,-73.64667l17.06148,-21.72577c24.54889,-30.44062 49.09778,-58.79459 73.64667,-85.92111c-22.33949,59.77654 -43.32879,120.04407 -63.70437,181.66178c-26.02182,-1.1047 -51.79815,-1.35019 -78.4337,-0.98196l0,0.61372zm95.37243,-150.36194c-27.98573,32.52728 -53.39383,64.80907 -78.55644,99.423c0,0 12.27444,-18.41167 19.14813,-27.6175c8.59211,-11.047 17.30697,-21.97126 26.02182,-32.89551c31.54532,-38.54176 61.37222,-73.64667 93.8995,-105.80571c0,1.35019 -0.98196,2.57763 -1.59568,3.92782c-19.76186,19.76186 -39.03273,40.38292 -58.91733,62.9679zm91.07638,-150.97566s1.84117,-1.84117 4.66429,-4.29606l0,0.85921l-4.66429,3.43684zm12.27444,129.74088s17.79794,-47.99308 40.13743,-106.54218l5.15527,-4.4188c-5.03252,12.27444 -10.43328,24.54889 -14.11561,34.00021c0,0 5.76899,-15.58854 8.71486,-23.32144c0.61372,-0.36823 -26.63554,66.52749 -38.90999,100.28221l-0.98196,0zm13.62463,-82.36152l1.22744,-1.1047l-7.61016,18.7799l6.38271,-17.6752zm-37.80529,12.27444l8.10113,-7.85564l0,1.1047l-7.85564,7.11918l-0.24549,-0.36823zm0,0.73647l-3.55959,3.19136l3.68233,-3.55959l-0.12274,0.36823zm20.13009,-19.8846l2.08666,-1.84117l-0.98196,2.08666l-1.84117,1.59568l0.73647,-1.84117zm13.99287,-13.01091c0,1.22744 -0.85921,2.33214 -1.35019,3.43684l-11.29249,9.57407l0.85921,-2.08666l11.78347,-10.92426zm-15.71129,20.49832l-2.08666,5.15527l-1.59568,1.59568c0.61372,-1.71842 1.22744,-3.43684 1.96391,-5.15527l1.71842,-1.59568zm-12.27444,31.42258c-6.01448,15.22031 -12.27444,31.17709 -16.69324,42.71507l15.71129,-41.61037l0.98196,-1.1047zm2.2094,-2.2094l-2.94587,7.11918s1.35019,-3.43684 2.70038,-6.99643l0.24549,-0.12274zm9.08309,-24.54889l1.84117,-4.90978l11.29249,-10.55602c-0.85921,1.96391 -1.71842,3.92782 -2.45489,6.01448s-5.15527,4.29606 -7.61016,6.6282l0.98196,-2.70038l-1.35019,2.94587l-2.70038,2.57763zm0,6.13722c2.2094,-2.2094 4.54154,-4.17331 6.87369,-6.25997l-6.6282,5.64624l-0.24549,0.61372zm26.02182,-23.81242l2.2094,-2.08666l-1.35019,3.19136l-1.84117,1.59568l0.98196,-2.70038zm3.80508,-3.43684l6.6282,-5.64624l-1.59568,3.68233l-6.13722,5.03252l1.1047,-3.06861zm-4.29606,12.27444l5.76899,-5.27801c-12.27444,30.68611 -24.54889,61.37222 -36.82333,93.53127c0,-0.49098 17.06148,-49.83424 30.80886,-88.74423l0.24549,0.49098zm24.54889,-25.77633l1.96391,-5.27801l5.64624,-4.78703l-2.57763,6.25997l-5.03252,3.80508zm4.05057,-10.67877l3.3141,-8.46937l6.38271,-5.27801l-4.05057,9.32858l-5.64624,4.4188zm-14.48384,12.27444l-7.11918,5.64624c0.73647,-2.08666 1.47293,-4.17331 2.2094,-6.01448l-2.82312,6.50546l-2.82312,2.33214l2.57763,-6.6282l11.41523,-9.9423c-1.71842,1.59568 -2.82312,4.4188 -3.92782,6.99643l0.49098,1.1047zm-14.85208,12.27444l2.45489,-6.50546l0.73647,-0.61372l-3.19136,7.11918zm3.92782,-10.92426l1.71842,-4.54154a4.78703,4.78703 0 0 1 1.22744,-0.98196c-0.73647,1.59568 -1.47293,3.19136 -2.08666,4.78703l-0.85921,0.73647zm6.6282,-17.30697l2.82312,-7.36467l2.45489,-2.2094c-1.1047,2.70038 -2.2094,5.40076 -3.43684,8.10113l-1.84117,1.47293zm-12.27444,9.20583l-13.99287,11.53798l1.47293,-3.68233c4.90978,-4.66429 10.06504,-9.32858 15.09757,-13.87012l-2.57763,6.01448zm-24.54889,20.00734c-5.5235,4.78703 -11.16974,9.69681 -16.81599,14.85208c5.89173,-5.89173 12.27444,-11.53798 17.79794,-17.30697a20.49832,20.49832 0 0 1 -0.36823,1.35019l-0.61372,1.1047zm-13.74738,2.94587c6.87369,-6.38271 13.74738,-12.27444 20.49832,-18.65716c0,0.85921 -0.73647,1.71842 -0.98196,2.45489c-5.89173,3.92782 -12.39719,9.45132 -18.90264,15.09757l-0.61372,1.1047zm-3.55959,2.94587l0,0.61372l0,-0.61372zm-85.92111,79.29291s-39.7692,42.83781 -58.5491,65.30004c0,0 49.09778,-60.51301 75.24234,-89.4807c0,0 36.82333,-38.54176 55.235,-56.95342c8.59211,-8.71486 15.95678,-16.07952 24.42614,-23.32144l-5.89173,14.60659a1178.34665,1178.34665 0 0 0 -89.84893,88.74423l-0.61372,1.1047zm73.64667,-38.54176l9.69681,-9.57407l-1.59568,4.05057l-9.57407,9.45132l1.47293,-3.92782zm10.55602,-10.43328l7.48741,-7.36467c-0.73647,1.71842 -1.35019,3.3141 -2.08666,4.90978l-6.75094,6.38271c0.73647,-2.45489 1.22744,-3.68233 1.71842,-5.03252l-0.36823,1.1047zm-6.13722,26.39006c-13.99287,35.3504 -27.37201,70.94629 -40.50567,107.40139c0.85921,-2.45489 18.65716,-54.49853 35.47314,-102.12338c2.57763,-2.94587 3.68233,-4.66429 5.40076,-6.38271l-0.36823,1.1047zm20.9893,-21.48028l5.76899,-5.76899c-12.27444,31.05434 -24.54889,62.47692 -35.96412,94.51322c0.36823,-1.1047 17.06148,-50.57071 30.56337,-89.84893l-0.36823,1.1047zm59.6538,-56.09421l8.34662,-7.24192c-8.46937,20.37558 -16.81599,40.8739 -24.54889,61.37222c-19.51637,48.11582 -36.82333,95.98615 -54.62128,144.47021c19.27088,-56.58519 48.23857,-139.1922 71.19178,-199.70521l-0.36823,1.1047zm1.59568,-4.17331c0.85921,-2.08666 1.59568,-4.05057 2.33214,-6.01448l8.59211,-6.75094l-3.06861,6.99643l-7.85564,5.76899zm4.17331,-10.67877c1.1047,-3.19136 2.33214,-6.13722 3.43684,-9.08309c3.19136,-2.57763 6.25997,-5.27801 9.57407,-7.85564c-1.59568,3.55959 -3.06861,7.11918 -4.54154,10.67877l-8.46937,6.25997zm13.01091,-17.06148l-9.20583,6.99643c0.61372,-1.47293 1.22744,-2.94587 1.71842,-4.4188s-0.73647,1.96391 -1.84117,4.54154l-6.13722,4.66429l2.94587,-7.61016l16.44776,-13.50189c-0.98196,2.45489 -2.2094,5.15527 -3.55959,8.22388l-0.36823,1.1047zm-29.33592,22.33949l-11.16974,7.61016l1.96391,-5.03252l12.27444,-10.31053c-0.85921,2.33214 -1.96391,4.54154 -2.70038,6.6282l-0.36823,1.1047zm-4.4188,-8.22388l3.19136,-8.10113c4.29606,-3.80508 8.71486,-7.61016 13.2564,-11.29249c-1.59568,3.43684 -3.19136,6.99643 -4.66429,10.55602l-11.78347,8.8376zm17.06148,-20.9893l-12.27444,9.08309c0.85921,-2.2094 1.71842,-4.29606 2.45489,-6.38271c4.4188,-3.68233 8.96034,-7.11918 13.50189,-10.67877l-3.68233,7.97839zm-14.3611,10.43328l-2.45489,1.84117l2.2094,-5.89173l3.06861,-2.33214c-0.98196,1.84117 -1.84117,4.05057 -2.82312,6.13722l0,0.24549zm-13.2564,10.06504l-14.48384,11.41523l1.35019,-3.19136l15.22031,-13.13366c-0.61372,1.47293 -1.35019,3.06861 -2.08666,4.66429l0,0.24549zm-18.7799,7.97839l-5.64624,4.54154c-5.15527,4.4188 -10.06504,8.96034 -15.09757,13.37914c1.84117,-4.66429 3.55959,-9.45132 5.40076,-14.11561l22.33949,-20.00734l-6.99643,16.20227zm-9.57407,-14.11561a1149.37897,1149.37897 0 0 0 -196.39111,203.2648c-26.75829,35.47314 -50.93894,70.33257 -73.64667,106.91041l-1.96391,0c13.37914,-20.37558 38.17352,-57.4444 53.39383,-78.80193l10.92426,-14.85208c22.33949,-28.96769 44.92447,-56.95342 68.61414,-84.69367a1508.28372,1508.28372 0 0 1 146.67961,-149.25724c-2.82312,5.64624 -5.15527,11.41523 -7.61016,17.18422l0,0.24549zm-297.77802,353.87223l0,0.73647l-2.08666,0l0.61372,-0.73647l1.47293,0zm-36.82333,58.91733l-0.98196,1.59568l0.98196,-1.59568zm-110.47,40.99664l-0.73647,1.47293l-0.73647,0l0.73647,-1.47293l0.73647,0zm91.93559,-9.57407l0.85921,-1.47293l-0.85921,1.47293zm78.31095,-7.36467q49.09778,-1.96391 97.2136,-2.82312l24.42614,0l0,1.71842c-36.82333,0 -75.24234,0 -114.64331,2.08666l-6.25997,0l-0.73647,-0.98196zm116.23899,15.22031c0,0.98196 -0.61372,1.96391 -0.85921,2.82312c-19.63911,0 -55.48049,-0.85921 -76.71528,0c1.96391,-0.73647 40.75116,-2.08666 77.57449,-2.82312zm4.90978,0a27.6175,27.6175 0 0 0 -0.98196,2.94587c0.36823,-1.1047 0.61372,-2.08666 0.98196,-2.94587zm61.37222,0l1.71842,0c0,1.59568 -0.85921,3.06861 -1.35019,4.54154l-2.08666,0l1.71842,-4.54154zm-55.97147,-15.83403l0,-1.71842l0,1.71842zm8.59211,-28.23122l0,-1.1047l0.98196,0l0,1.1047l-0.98196,0zm61.37222,0l1.22744,0l-0.73647,2.45489l-1.22744,0l0.73647,-2.45489zm5.76899,-17.79794l0,-1.47293l0.98196,0l0,1.35019l-0.98196,0.12274zm1.71842,-5.64624l0,-0.85921l0.85921,0l0,0.98196l-0.85921,-0.12274zm1.59568,-4.90978l0.73647,-2.2094l0.85921,0l-0.73647,2.33214l-0.85921,-0.12274zm-52.04364,-29.09043l0,-1.47293l2.08666,0l0,1.47293l-2.08666,0zm7.7329,-24.54889c0,-1.71842 1.1047,-3.3141 1.59568,-5.03252l2.33214,0c-0.61372,1.59568 -1.1047,3.3141 -1.71842,4.90978l-2.2094,0.12274zm5.89173,-18.28892q31.42258,-95.49518 64.80907,-189.51742l8.59211,-9.20583c-25.28536,65.91377 -49.09778,131.82753 -70.94629,198.72325l-2.45489,0zm149.37999,-214.92552s-10.55602,26.02182 -15.71129,39.03273c0,0 24.54889,-66.52749 45.04721,-122.74444l3.80508,-3.43684l-3.55959,2.70038c0.98196,-2.57763 1.84117,-5.03252 2.82312,-7.48741s5.40076,-4.4188 8.22388,-6.50546c-14.11561,32.15904 -27.49476,64.93181 -40.62841,98.44104zm19.51637,-33.50923l1.84117,-5.40076s-9.81956,22.95321 -14.60659,34.49119c0,0 18.53441,-48.36131 38.54176,-98.19555l5.64624,-4.17331c-10.67877,24.18066 -21.23479,48.72954 -31.42258,73.27843zm42.59232,-98.19555l-10.31053,22.95321c-1.71842,1.35019 -3.80508,2.57763 -5.5235,3.80508c2.82312,-6.99643 5.5235,-13.99287 8.34662,-20.86656l7.48741,-5.89173zm-10.80151,8.22388c-3.19136,7.11918 -6.38271,14.3611 -9.45132,21.48028c-2.82312,1.96391 -5.5235,4.05057 -8.22388,6.13722l7.36467,-19.51637l10.31053,-8.10113zm-4.05057,-14.48384c-3.19136,7.11918 -6.50546,14.23836 -9.57407,21.48028c-5.40076,3.68233 -10.67877,7.24192 -15.83403,10.92426c2.45489,-6.38271 5.03252,-12.27444 7.48741,-19.27088l17.92069,-13.13366zm-18.28892,-2.45489l-9.45132,20.9893c-4.4188,3.3141 -8.96034,6.50546 -13.2564,9.81956c2.45489,-6.50546 4.90978,-12.27444 7.24192,-18.28892l15.4658,-12.51993zm-15.95678,12.27444l-8.22388,19.14813l-3.19136,2.45489l6.50546,-16.69324l1.47293,-1.22744l-1.47293,0.98196l0,-1.1047l4.90978,-3.55959zm2.82312,-24.54889c-4.05057,8.71486 -8.10113,17.55246 -12.27444,26.26731c-5.64624,4.05057 -11.29249,8.34662 -16.81599,12.27444c2.94587,-7.7329 6.01448,-15.34306 8.96034,-22.83047c6.99643,-4.4188 13.37914,-9.81956 20.13009,-15.09757l0,-0.61372zm-334.60135,323.6771c37.80529,-52.41188 75.85607,-101.50965 117.83467,-150.85292a1411.5611,1411.5611 0 0 1 217.13492,-206.82439c-5.40076,12.27444 -13.50189,29.58141 -20.9893,46.27466a964.52583,964.52583 0 0 0 -102.98259,85.18464a1282.80217,1282.80217 0 0 1 101.87789,-91.07638c-28.96769,21.23479 -54.98951,42.71507 -81.7478,66.65023c27.12652,-25.65359 54.00755,-49.09778 83.34348,-72.17373a1081.74678,1081.74678 0 0 0 -108.50609,90.83089s45.41544,-45.16996 69.22787,-66.52749l-0.73647,0.61372s13.2564,-11.29249 20.13009,-16.81599c-1.35019,1.1047 -40.62841,32.0363 -59.6538,49.09778a1234.07263,1234.07263 0 0 0 -174.78809,186.20332s-32.52728,44.188 -35.47314,48.23857c0,0 -34.49119,48.36131 -50.8162,73.64667l-4.17331,6.38271c3.92782,-6.87369 20.9893,-34.36844 30.31788,-48.85229zm-235.42384,200.56442l3.3141,0l-3.3141,0l-3.68233,0.61372l3.68233,-0.61372zm32.89551,54.25304l1.1047,-2.33214l2.08666,0l-1.22744,2.33214l-1.96391,0zm184.11666,-30.07239l33.01826,-3.06861c13.99287,-0.73647 28.10848,-1.22744 42.10134,-1.71842c18.04343,0 35.71863,-0.85921 53.39383,-0.98196c-7.11918,-0.61372 -117.22094,5.03252 -128.26794,6.13722l-0.24549,-0.36823zm195.40915,-4.78703l-2.08666,0l0,-1.35019l1.96391,0l0.12274,1.35019zm13.37914,-46.15191l-1.47293,0l0.98196,-3.06861l1.71842,0c-0.36823,1.1047 -0.61372,2.08666 -0.98196,3.19136l-0.24549,-0.12274zm81.99329,-9.20583l0,-0.85921l0,0.85921zm1.47293,-4.29606zm1.22744,-3.3141l0,-1.47293l0,1.47293zm1.84117,-5.5235l0,-1.71842l1.1047,-3.43684l-1.1047,5.15527zm6.75094,-21.11204l0.98196,-2.70038l-0.98196,2.70038zm1.59568,-5.15527l0.85921,-2.57763l-0.85921,2.57763zm1.71842,-4.90978l1.47293,-4.29606l-1.47293,4.29606zm-73.64667,-20.37558l0,-1.22744l0.61372,0l-0.61372,1.22744zm2.94587,-11.29249l0.73647,-2.33214l0.61372,0l-0.73647,2.33214l-0.61372,0zm5.03252,-15.34306l0,-1.35019l0,1.35019zm2.94587,-8.34662l1.96391,-6.13722c-0.73647,1.84117 -1.35019,3.80508 -2.08666,6.75094l0.12274,-0.61372z"/>
 </g>
</svg>