<?xml version="1.0" standalone="no"?><!DOCTYPE svg PUBLIC "-//W3C//DTD SVG 1.1//EN"
        "http://www.w3.org/Graphics/SVG/1.1/DTD/svg11.dtd">
<svg viewBox="0 0 1024 1024" version="1.1" xmlns="http://www.w3.org/2000/svg"
     width="100%" height="100%" xmlns:xlink="http://www.w3.org/1999/xlink">
    <path d="M320 85.333333C243.626667 134.4 192 221.013333 192 320 192 418.986667 243.626667 505.6 321.28 554.666667 190.293333 554.666667 85.333333 449.706667 85.333333 320 85.333333 190.293333 190.293333 85.333333 320 85.333333M813.653333 149.333333 874.666667 210.346667 210.346667 874.666667 149.333333 813.653333 813.653333 149.333333M549.973333 253.013333 486.826667 213.333333 425.386667 256 443.306667 183.466667 384 138.24 458.666667 133.12 483.413333 62.72 512 132.266667 585.813333 133.546667 528.213333 181.76 549.973333 253.013333M409.173333 407.04 359.68 375.893333 311.893333 409.173333 326.4 352.853333 279.893333 317.44 337.92 313.6 357.12 258.56 378.88 312.746667 436.906667 314.026667 392.106667 351.146667 409.173333 407.04M810.666667 576C810.666667 705.706667 705.706667 810.666667 576 810.666667 523.946667 810.666667 475.733333 793.6 436.906667 765.013333L765.013333 436.906667C793.6 475.733333 810.666667 523.946667 810.666667 576M622.933333 856.746667 741.12 807.68 730.88 950.613333 622.933333 856.746667M807.68 741.546667 856.746667 623.36 950.613333 731.733333 807.68 741.546667M856.746667 529.92 808.106667 411.306667 950.613333 421.546667 856.746667 529.92M410.88 807.68 529.066667 856.746667 421.12 950.186667 410.88 807.68Z"
          fill="#bfbfbf"></path>
</svg>
